<svg xmlns="http://www.w3.org/2000/svg" width="102" height="27" fill="none" xmlns:v="https://vecta.io/nano"><g clip-path="url(#A)"><path d="M58.938 13.287c.01-6.042 4.96-10.933 11.058-10.924S81.03 7.278 81.02 13.32c-.01 6.031-4.943 10.917-11.03 10.924-6.1-.003-11.044-4.907-11.041-10.952v-.005" fill="#164188"/><path d="M63.379 15.243v.649c0 2.446 1.308 2.707 3.352 2.843l2.169.046 4.155-.114c2.468-.171 3.615-.682 3.615-3.321 0-2.786-1.459-3.275-3.936-3.275h-2.14l-2.181-.068c-.724 0-1.836.079-1.836-.967 0-.649.603-.774 1.171-.807l2.468-.085h1.567c.724 0 1.205.204 1.245 1.024h3.179a4.24 4.24 0 0 0-.345-2.064c-.757-1.285-2.238-1.285-3.558-1.308l-2.296-.028c-1.594-.044-3.189.064-4.763.324-1.722.454-1.98 1.536-1.98 3.128 0 2.025.631 2.968 2.721 3.116l5.337.114h.516c.711 0 1.503.085 1.503.967s-.717.892-1.435.927l-2.181.057h-1.526c-.735 0-1.665 0-1.665-.995a.79.79 0 0 0 0-.182l-3.157.022-.003-.003z" fill="#fff"/><path d="M79.918 13.287c.01-6.042 4.96-10.933 11.058-10.924S102.008 7.278 102 13.32s-4.953 10.927-11.047 10.924c-6.1-.007-11.041-4.912-11.035-10.958z" fill="#164188"/><path d="M93.197 14.48h-4.453l2.227-4.338 2.227 4.339h-.001zm1.147 2.275l.976 1.99h3.489L93.151 7.81h-4.263l-5.779 10.958h3.524l1.032-1.99 6.68-.024v.001z" fill="#fff"/><g fill="#2a2321"><path d="M23.707 8.221l5.882 10.339h-3.621l-.976-1.846h-6.725l-.99 1.846H13.76l5.793-10.339h4.153.001zm-4.27 6.312h4.389l-2.157-4.027-2.231 4.027h-.001zm21.279-2.737c-.088-.849-.177-1.098-1.522-1.156h-4.478c-.414.015-.857.044-1.198.322-.414.322-.443.864-.488 1.845v1.362c.015.074.015.132.015.206 0 .146 0 .937.473 1.391.384.352.961.381 1.566.425h3.946c.635-.015 1.198-.029 1.537-.513.192-.307.206-.63.206-.966h-4.39v-2.021l7.64.015-.016 2.079a10.05 10.05 0 0 1-.059 1.142c-.104 1.055-.459 1.947-1.507 2.387-.872.366-1.951.366-2.882.366h-5.305c-1.167 0-2.335-.015-3.354-.762-.31-.235-.502-.484-.59-.585-.724-1.055-.606-2.621-.621-3.779l-.015-.937a9.88 9.88 0 0 1 .074-1.317c.163-1.274.621-2.285 1.892-2.811.739-.307 1.492-.336 3.088-.365l1.241-.015h2.557l2.482.074c1.359.132 1.921.498 2.335.996.665.806.665 1.655.635 2.621h-3.266l.003-.005zm16.329-3.575v2.285h-8.483v1.727h8.024v2.168h-8.024v1.816h8.483v2.343h-11.66V8.221h11.66z"/></g><g fill-rule="evenodd"><path d="M13.004.196c.76.443.687 1.474.254 2.118-1.105 1.638-2.472 3.092-3.655 4.673-.607.812-2.294 3.227-3.119 5.013-.574-1.879-1.011-4.429-.421-7.033L10.686.653c.602-.523 1.555-.902 2.318-.457z" fill="#ef7d00"/><path d="M5.57 12.873c.394 1.126.836 2.066 1.192 2.747.872 1.693 2.287 3.597 2.84 4.346l3.655 4.737c.433.65.506 1.681-.254 2.112s-1.717.035-2.318-.498l-3.005-2.695-4.952-4.904C1.434 17.299-.039 15.384 0 13.392c-.039-1.99 1.435-3.88 2.728-5.279L4.621 6.16c-.181 2.116.139 4.398.949 6.712z" fill="#164188"/></g></g><defs><clipPath id="A"><path fill="#fff" d="M0 0h102v27H0z"/></clipPath></defs></svg>