<svg xmlns="http://www.w3.org/2000/svg" width="220" height="59" fill="none" xmlns:v="https://vecta.io/nano"><g clip-path="url(#A)"><path d="M127.122 29.08c.021-12.98 10.698-23.485 23.85-23.467s23.799 10.559 23.777 23.539c-.021 12.956-10.662 23.452-23.789 23.467-13.158-.006-23.82-10.541-23.814-23.527v-.012" fill="#001689"/><path d="M136.701 33.284v1.394c0 5.254 2.822 5.815 7.229 6.108l4.679.098 8.963-.245c5.323-.367 7.798-1.466 7.798-7.135 0-5.985-3.146-7.036-8.491-7.036h-4.616l-4.703-.146c-1.561 0-3.96.17-3.96-2.078 0-1.394 1.301-1.663 2.526-1.734 1.782-.075 3.527-.182 5.324-.182h3.378c1.561 0 2.599.439 2.686 2.2h6.857c.127-1.517-.127-3.039-.744-4.433-1.633-2.761-4.827-2.761-7.673-2.809l-4.952-.06c-3.439-.095-6.878.137-10.272.696-3.714.976-4.271 3.299-4.271 6.72 0 4.349 1.361 6.377 5.868 6.693 3.835.245 7.674.245 11.512.245h1.113c1.534 0 3.243.182 3.243 2.078s-1.546 1.916-3.094 1.991a98.47 98.47 0 0 1-4.704.122h-3.291c-1.585 0-3.59 0-3.59-2.138.015-.128.015-.26 0-.391l-6.809.048-.006-.006z" fill="#fff"/><path d="M172.372 29.08c.021-12.98 10.699-23.485 23.85-23.467S220.018 16.172 220 29.152c-.021 12.971-10.683 23.473-23.826 23.467-13.158-.015-23.814-10.553-23.802-23.538z" fill="#001689"/><path d="M201.014 31.644h-9.604l4.803-9.32 4.804 9.32h-.003zm2.474 4.887l2.105 4.275h7.526l-12.205-23.491h-9.196l-12.465 23.539h7.602l2.226-4.275 14.407-.051v.003z" fill="#fff"/><g fill="#2a2321"><path d="M51.134 18.201l12.686 22.21h-7.81l-2.105-3.964H39.401l-2.135 3.964H29.68l12.495-22.21h8.956.003zm-9.21 13.559h9.468l-4.652-8.651-4.812 8.651h-.003zm45.894-5.881c-.191-1.824-.381-2.358-3.282-2.484h-9.658c-.892.033-1.848.096-2.583.692-.892.693-.956 1.857-1.053 3.964v2.925c.033.158.033.284.033.442 0 .314 0 2.012 1.019 2.988.829.755 2.072.818 3.379.913h8.512c1.37-.033 2.583-.063 3.315-1.102.414-.66.445-1.352.445-2.075h-9.468v-4.341l16.479.033-.033 4.466c0 .818-.033 1.636-.127 2.454-.224 2.266-.989 4.182-3.252 5.129-1.881.785-4.207.785-6.216.785H73.886c-2.517 0-5.036-.033-7.235-1.636-.668-.505-1.083-1.039-1.273-1.257-1.561-2.266-1.307-5.63-1.34-8.117l-.033-2.012c0-.943.033-1.887.16-2.83.351-2.737 1.34-4.908 4.08-6.039 1.594-.66 3.218-.722 6.66-.785l2.677-.033h5.514l5.354.158c2.931.284 4.144 1.069 5.036 2.14 1.434 1.731 1.434 3.555 1.37 5.63h-7.045l.006-.012zm35.22-7.678v4.908h-18.297v3.711h17.308v4.657h-17.308v3.902h18.297v5.033H97.89v-22.21h25.148z"/></g><g fill-rule="evenodd"><path d="M28.049.961c1.639.952 1.482 3.167.547 4.549-2.384 3.52-5.333 6.642-7.883 10.039-1.31 1.743-4.948 6.932-6.727 10.768-1.237-4.036-2.181-9.514-.907-15.108 3.233-3.012 6.654-6.397 9.97-9.266 1.298-1.122 3.354-1.937 5-.982z" fill="#ef7d00"/><path d="M12.014 28.192c.85 2.418 1.803 4.439 2.571 5.902 1.881 3.636 4.933 7.726 6.125 9.335 2.55 3.445 5.499 6.618 7.883 10.177.935 1.397 1.092 3.612-.547 4.538-1.645.925-3.702.075-5-1.069l-6.482-5.788c-3.702-3.379-7.329-6.857-10.68-10.535C3.094 37.7-.085 33.586 0 29.309c-.085-4.275 3.094-8.335 5.883-11.341a124.56 124.56 0 0 1 4.083-4.194c-.39 4.547.299 9.448 2.048 14.419z" fill="#001689"/></g></g><defs><clipPath id="A"><path fill="#fff" transform="translate(0 .539)" d="M0 0h220v58H0z"/></clipPath></defs></svg>