<svg xmlns="http://www.w3.org/2000/svg" xmlns:xlink="http://www.w3.org/1999/xlink" width="230" height="51" fill="none" xmlns:v="https://vecta.io/nano"><path d="M230 25.5c0 14.082-11.564 25.5-25.826 25.5s-25.826-11.418-25.826-25.5S189.907 0 204.168 0s25.826 11.418 25.826 25.5" fill="#fff"/><path d="M228.335 25.99c-.234 4.51-1.346 8.682-3.815 12.426-2.172 3.294-4.938 6.019-8.445 7.922-2.771 1.503-5.731 2.528-8.89 2.917-.24.028-.314-.056-.382-.265-.337-1.014-.365-2.078-.508-3.119-.296-2.145-.547-4.302-.479-6.469.143-4.212 1.631-7.877 4.722-10.855.673-.648 1.357-1.272 2.115-1.813 3.234-2.275 6.752-3.964 10.618-4.893 1.414-.343 2.846-.614 4.294-.8.24-.034.302.023.348.259.297 1.571.422 3.159.416 4.673m-44.387-1.081c2.121.085 4.237.197 6.318.681 1.312.31 2.606.692 3.838 1.25 3.535 1.605 5.714 4.347 6.797 7.995.428 1.441.502 2.933.616 4.414.2 2.652-.029 5.276-.525 7.883-.108.569-.256 1.132-.359 1.7-.045.253-.142.304-.393.265-2.23-.36-4.38-.985-6.41-1.965-4.356-2.095-7.886-5.135-10.35-9.268-1.842-3.08-3.01-6.419-3.336-10.016a37.18 37.18 0 0 1-.131-2.522c0-.276.097-.388.377-.394 1.186-.039 2.372-.096 3.564-.028" fill="#164188"/><path d="M204.259 33.028c-.148-.8-.228-1.605-.279-2.41l-.65-11.255-.508-6.008c-.336-2.477-.998-4.876-1.916-7.213-.484-1.233-1.083-2.404-1.705-3.57-.114-.22-.114-.298.16-.349 1.397-.265 2.8-.439 4.22-.484a.27.27 0 0 1 .319.22l.308 1.075 1.46 3.941a43.2 43.2 0 0 0 3.307 6.565l1.329 2.061c.211.298.439.597.747.799.268.18.319.4.325.693.034 1.813.125 3.62.496 5.4.068.321.143.647.257.957.079.214.034.315-.154.439a21.13 21.13 0 0 0-4.796 4.24c-1.169 1.402-2.081 2.95-2.749 4.639-.034.09-.034.208-.165.259" fill="#00abe1"/><path d="M201.015 28.895c-.593-.755-1.158-1.413-1.814-1.993-1.226-1.075-2.577-1.931-4.06-2.624-1.271-.586-2.594-.997-3.94-1.34-.183-.045-.262-.141-.342-.293l-1.774-3.739c-1.243-2.438-2.686-4.746-4.311-6.948-.142-.197-.159-.321 0-.524.656-.856 1.352-1.672 2.099-2.449.154-.158.239-.208.427-.023l4.916 4.51c1.602 1.385 3.302 2.624 5.115 3.722.918.552 1.893.991 2.92 1.312.216.067.285.169.296.383l.114 2.185.365 7.821" fill="#8fbf25"/><path d="M200.222 15.5c-.228-.034-.422-.152-.621-.253-1.797-.912-3.416-2.089-4.95-3.373l-5.166-4.69c-.297-.293-.297-.293.045-.552.759-.574 1.528-1.149 2.378-1.588l4.123-1.886c.205-.073.274-.011.371.152.804 1.396 1.585 2.815 2.115 4.335.884 2.522 1.5 5.107 1.734 7.776 0 .023-.012.039-.029.079z" fill="#f4a900"/><path d="M214.21 15.63c.108-2.798.684-5.506 1.808-8.08l.952-1.931c.114-.231.217-.129.342-.039 1.357.946 2.68 1.931 3.855 3.091l1.756 1.886c.194.225.16.326-.051.501-1.619 1.351-3.273 2.674-5.064 3.795l-3.284 1.875c-.28.129-.36.096-.337-.214l.029-.89" fill="#00abe1"/><path d="M214.347 19.903c-.023-.101.045-.146.165-.18 1.483-.479 2.783-1.306 4.106-2.094 2.116-1.261 4.049-2.77 5.936-4.335.183-.152.257-.146.371.062.821 1.509 1.574 3.052 2.132 4.673.086.253-.017.287-.222.315-1.597.22-3.159.619-4.733.974-2.48.557-4.773 1.571-7.02 2.708-.387.197-.387.197-.473-.231a21.37 21.37 0 0 1-.262-1.892z" fill="#8fbf25"/><path d="M206.803 1.937a20.3 20.3 0 0 1 2.651.417 24.73 24.73 0 0 1 4.842 1.593c.251.113.273.197.154.439a28.88 28.88 0 0 0-2.412 6.458l-.371 1.661c-.873-.805-4.203-8.04-4.859-10.568" fill="#f4a900"/><g fill="#00abe1"><path d="M182.573 15.005c1.968 2.421 3.501 5.09 4.881 7.871l-.895.011c-2.018-.073-4.031-.084-6.05.107-.205.023-.308.023-.279-.248a23.51 23.51 0 0 1 2.269-7.652c.011-.028.04-.045.074-.085M14.769 25.112c0-4.29-2.007-5.794-4.186-5.794S3.98 20.737 3.98 27.133v9.397H0V6.678h3.98v13.654c.861-2.877 3.53-4.499 6.894-4.499 4.431 0 7.875 2.753 7.875 9.273v11.418h-3.98V25.106v.006z"/><path d="M43.726 33.208c-2.623 2.916-5.948 3.767-8.981 3.767-7.139 0-11.57-4.741-11.57-10.489s4.676-10.653 11.034-10.653c5.411 0 10.458 3.446 10.458 10.934H27.149c-.125 3.93 3.079 6.723 7.63 6.723 2.463 0 4.676-.811 6.729-2.551l2.212 2.269h.006zm-16.2-9.476h13.047c-1.106-3.688-4.02-4.454-6.278-4.454-2.418 0-5.417.929-6.769 4.454zm25.592-2.877c.696-3.204 2.954-5.022 5.497-5.022.736 0 1.312.203 1.887.445v3.851c-.656-.366-1.437-.524-2.173-.524-1.357 0-5.212.648-5.212 9.273v7.657h-3.98V16.277h3.98v4.578z"/></g><g fill="#fff"><path d="M98.56 15.833c2.749 0 5.457.935 7.425 3.688v-3.243h3.98V36.53h-3.98v-3.243c-1.968 2.753-4.676 3.688-7.425 3.688-6.153 0-10.173-4.78-10.173-10.568s4.02-10.574 10.173-10.574zm.49 3.485c-4.265 0-6.689 3.243-6.689 7.089s2.423 7.089 6.689 7.089 6.974-2.995 7.014-7.089c-.04-4.093-2.874-7.089-7.014-7.089zm26.459 2.106c-.655-1.824-1.927-2.23-3.199-2.23-1.847 0-3.033 1.132-3.033 2.59 0 1.34 1.231 2.027 2.457 2.432l2.954.974c3.895 1.171 4.921 3.564 4.921 5.709 0 3.846-3.404 6.075-7.384 6.075-3.61 0-6.974-1.824-7.921-5.309l3.53-.85c.49 1.621 2.338 2.798 4.431 2.798s3.53-1.177 3.53-2.753c0-1.379-1.147-2.066-2.584-2.55l-2.748-.935c-3.285-.974-5.047-2.714-5.047-5.506 0-3.446 2.709-6.036 6.769-6.036 2.868 0 5.702 1.177 6.848 4.82l-3.529.771h.005zm13.823 8.991c0 2.23 1.106 3.119 2.458 3.119 1.271 0 2.503-.726 2.503-2.224 0-.282-.04-1.053-.331-1.661h3.49c.371.811.371 2.185.371 2.185 0 2.877-2.093 5.146-6.073 5.146-3.239 0-6.398-1.661-6.398-6.847v-10.77h-3.365v-3.08h3.365l.901-5.833h3.073v5.833h6.524v3.08h-6.524v11.058l.006-.006zm20.876-14.582c2.749 0 5.458.935 7.425 3.688v-3.243h3.98V36.53h-3.98v-3.243c-1.973 2.753-4.676 3.688-7.425 3.688-6.152 0-10.173-4.78-10.173-10.568s4.021-10.574 10.173-10.574zm.491 3.485c-4.266 0-6.683 3.243-6.683 7.089s2.417 7.089 6.683 7.089 6.974-2.995 7.014-7.089c-.04-4.093-2.874-7.089-7.014-7.089zm-92.937 8.384c0 4.29 2.013 5.794 4.186 5.794s6.603-1.419 6.603-7.815v-9.397h3.98v32.161h-3.98V32.487c-.861 2.877-3.53 4.499-6.894 4.499-4.431 0-7.875-2.753-7.875-9.273v-11.43h3.98v11.418z"/><path d="M124.289 37.983c0 1.272-1.043 2.297-2.332 2.297s-2.327-1.03-2.327-2.297 1.044-2.297 2.327-2.297 2.332 1.03 2.332 2.297zm-33.86 9.639a2.59 2.59 0 0 1-1.095 1.053c-.479.248-1.055.377-1.722.377H85.57v-6.025h2.041c.667 0 1.243.124 1.722.372s.844.597 1.095 1.047.376.98.376 1.588-.126 1.137-.376 1.593v-.006zm-1.215-.006c.388-.372.587-.901.587-1.577s-.194-1.205-.587-1.577c-.393-.377-.952-.563-1.682-.563h-.975v4.279h.975c.73 0 1.294-.186 1.682-.563z"/><path d="M87.612 49.148h-2.138v-6.222h2.138c.684 0 1.277.13 1.768.383a2.71 2.71 0 0 1 1.141 1.087c.262.462.388 1.013.388 1.633s-.131 1.171-.388 1.638-.639.839-1.135 1.092c-.49.259-1.089.389-1.773.389zm-1.939-.203h1.939c.65 0 1.215-.124 1.676-.36a2.46 2.46 0 0 0 1.055-1.014c.239-.434.365-.957.365-1.543s-.12-1.104-.365-1.537a2.47 2.47 0 0 0-1.055-1.002c-.462-.236-1.026-.36-1.676-.36h-1.939v5.822-.006zm1.859-.676h-1.078v-4.482h1.078c.753 0 1.346.203 1.756.591.411.394.622.946.622 1.65s-.211 1.256-.622 1.65-.998.591-1.756.591zm-.873-.197h.873c.701 0 1.243-.18 1.614-.535s.553-.861.553-1.509-.188-1.149-.553-1.503c-.371-.355-.912-.535-1.614-.535h-.873v4.082zm10.755-4.729c.456.265.815.625 1.078 1.098.262.467.394.997.394 1.588s-.131 1.12-.394 1.588a2.88 2.88 0 0 1-1.078 1.104c-.456.265-.969.394-1.534.394s-1.083-.13-1.54-.394-.821-.631-1.084-1.104c-.268-.467-.393-.997-.393-1.588s.131-1.12.393-1.588c.268-.467.627-.833 1.084-1.098.456-.259.969-.394 1.54-.394s1.078.13 1.534.394zm-2.578.777a1.78 1.78 0 0 0-.713.76c-.171.332-.251.715-.251 1.149s.085.822.251 1.149c.171.332.411.586.713.76.308.18.656.265 1.044.265s.73-.09 1.032-.265.536-.428.707-.76c.171-.327.257-.709.257-1.149s-.086-.822-.257-1.149c-.171-.332-.405-.58-.707-.76s-.644-.265-1.032-.265-.741.085-1.044.265z"/><path d="M95.88 49.215c-.587 0-1.123-.135-1.597-.411a3 3 0 0 1-1.123-1.137 3.27 3.27 0 0 1-.41-1.638c0-.608.137-1.154.41-1.639a2.91 2.91 0 0 1 1.123-1.132c.473-.27 1.009-.405 1.591-.405s1.112.135 1.585.405a2.94 2.94 0 0 1 1.118 1.132c.268.484.405 1.036.405 1.639s-.137 1.16-.405 1.638a2.91 2.91 0 0 1-1.118 1.137c-.473.276-1.004.411-1.585.411h.006zm-.006-6.165c-.553 0-1.049.13-1.494.377a2.77 2.77 0 0 0-1.049 1.058c-.257.451-.382.974-.382 1.543s.131 1.092.382 1.543c.257.45.61.811 1.049 1.064a2.95 2.95 0 0 0 1.494.383c.553 0 1.043-.13 1.483-.383a2.77 2.77 0 0 0 1.043-1.064c.251-.45.382-.974.382-1.543s-.131-1.092-.382-1.543-.604-.811-1.043-1.058-.941-.377-1.483-.377zm0 5.253c-.411 0-.781-.096-1.095-.276a1.98 1.98 0 0 1-.753-.8c-.177-.343-.268-.743-.268-1.199s.091-.856.268-1.199a1.93 1.93 0 0 1 .753-.799 2.15 2.15 0 0 1 1.095-.276c.405 0 .77.096 1.083.276a1.86 1.86 0 0 1 .747.799c.177.344.268.743.268 1.199s-.091.856-.268 1.199-.428.614-.747.8c-.314.186-.679.276-1.083.276zm0-4.347c-.371 0-.707.084-.992.248s-.513.411-.673.721c-.165.315-.245.687-.245 1.104s.08.794.245 1.104a1.76 1.76 0 0 0 .673.721c.285.169.621.248.992.248s.696-.084.981-.248a1.72 1.72 0 0 0 .667-.721c.165-.315.245-.687.245-1.104s-.08-.794-.245-1.104a1.79 1.79 0 0 0-.667-.721 1.95 1.95 0 0 0-.981-.248zm6.244 4.336h2.105v.76h-3.091v-6.025h.986v5.264z"/><path d="M104.325 49.148h-3.296v-6.222h1.186v5.264h2.11v.957zm-3.091-.197h2.891v-.557h-2.109v-5.264h-.782v5.822z"/><use xlink:href="#B"/><path d="M108.534 49.21c-.73 0-1.323-.225-1.768-.664s-.667-1.092-.667-1.942v-3.671h1.186v3.671c0 .507.114.884.33 1.126.223.242.525.36.93.36s.701-.118.924-.36.336-.619.336-1.126v-3.671h1.186v3.671c0 .85-.228 1.503-.678 1.942s-1.05.664-1.785.664h.006zm-2.241-6.081v3.474c0 .794.205 1.402.61 1.802s.952.608 1.619.608 1.232-.203 1.637-.608.621-1.008.621-1.802v-3.474h-.787v3.474c0 .557-.125.98-.382 1.261s-.616.422-1.072.422-.821-.141-1.077-.422-.383-.704-.383-1.261v-3.474h-.781-.005zm15.134 4.493a2.59 2.59 0 0 1-1.095 1.053c-.479.248-1.055.377-1.722.377h-2.042v-6.025h2.042c.667 0 1.243.124 1.722.372s.844.597 1.095 1.047.376.98.376 1.588-.126 1.137-.376 1.593v-.006zm-1.215-.006c.388-.372.587-.901.587-1.577s-.194-1.205-.587-1.577c-.394-.377-.952-.563-1.688-.563h-.975v4.279h.975c.73 0 1.294-.186 1.688-.563z"/><path d="M118.61 49.148h-2.139v-6.222h2.139c.684 0 1.277.13 1.767.383a2.71 2.71 0 0 1 1.141 1.087c.262.462.388 1.013.388 1.633s-.132 1.171-.388 1.638a2.68 2.68 0 0 1-1.135 1.092c-.496.259-1.089.389-1.773.389zm-1.939-.203h1.939c.644 0 1.214-.124 1.676-.36a2.46 2.46 0 0 0 1.055-1.014c.24-.434.365-.957.365-1.543s-.125-1.104-.365-1.537c-.239-.428-.593-.766-1.055-1.002s-1.026-.36-1.676-.36h-1.939v5.822-.006zm1.859-.676h-1.078v-4.482h1.078c.752 0 1.346.203 1.756.591.411.394.616.946.616 1.65s-.205 1.256-.616 1.65-.998.591-1.756.591zm-.878-.197h.878c.701 0 1.243-.18 1.614-.535s.558-.861.558-1.509-.188-1.149-.558-1.503-.913-.535-1.614-.535h-.878v4.082zm10.754-4.729a2.83 2.83 0 0 1 1.078 1.098 3.19 3.19 0 0 1 .393 1.588 3.19 3.19 0 0 1-.393 1.588 2.88 2.88 0 0 1-1.078 1.104c-.456.265-.969.394-1.534.394s-1.083-.13-1.539-.394a2.85 2.85 0 0 1-1.084-1.104 3.19 3.19 0 0 1-.393-1.588 3.19 3.19 0 0 1 .393-1.588c.268-.467.627-.833 1.084-1.098.456-.259.969-.394 1.539-.394s1.078.13 1.534.394zm-2.577.777c-.302.174-.542.428-.713.76s-.257.715-.257 1.149.086.822.257 1.149c.171.332.411.586.713.76.308.18.656.265 1.049.265s.73-.09 1.032-.265.536-.428.707-.76c.171-.327.257-.709.257-1.149s-.086-.822-.257-1.149c-.171-.332-.405-.58-.707-.76s-.65-.265-1.032-.265-.741.085-1.049.265z"/><path d="M126.872 49.215c-.587 0-1.117-.135-1.59-.411s-.85-.653-1.124-1.137-.41-1.03-.41-1.638.136-1.154.41-1.639.65-.867 1.124-1.132a3.22 3.22 0 0 1 1.59-.405c.581 0 1.112.135 1.586.405a2.94 2.94 0 0 1 1.117 1.132c.268.484.405 1.036.405 1.639s-.137 1.16-.405 1.638c-.268.484-.644.867-1.117 1.137-.474.276-1.004.411-1.586.411zm0-6.165a3.04 3.04 0 0 0-1.494.377c-.439.248-.792.608-1.049 1.058-.251.451-.382.974-.382 1.543s.131 1.092.382 1.543c.257.45.61.811 1.049 1.064s.941.383 1.489.383 1.043-.13 1.482-.383a2.73 2.73 0 0 0 1.044-1.064c.251-.45.382-.974.382-1.543s-.125-1.092-.382-1.543a2.72 2.72 0 0 0-1.044-1.058c-.439-.248-.935-.377-1.482-.377h.005zm-.005 5.253a2.19 2.19 0 0 1-1.095-.276 1.98 1.98 0 0 1-.753-.8c-.177-.343-.268-.743-.268-1.199s.091-.856.268-1.199a1.98 1.98 0 0 1 .753-.799c.319-.186.684-.276 1.095-.276a2.13 2.13 0 0 1 1.083.276c.32.18.565.45.747.799s.268.743.268 1.199-.091.856-.268 1.199a1.92 1.92 0 0 1-.747.8c-.319.186-.678.276-1.083.276zm0-4.347c-.371 0-.707.084-.992.248s-.514.411-.673.721a2.42 2.42 0 0 0-.246 1.104c0 .417.086.794.246 1.104a1.75 1.75 0 0 0 .673.721c.29.169.621.248.992.248a1.94 1.94 0 0 0 .981-.248c.285-.163.507-.411.667-.721.165-.315.245-.687.245-1.104s-.086-.794-.245-1.104a1.79 1.79 0 0 0-.667-.721c-.286-.163-.616-.248-.981-.248zm6.244 4.336h2.11v.76h-3.091v-6.025h.981v5.264z"/><path d="M135.323 49.148h-3.296v-6.222h1.186v5.264h2.11v.957zm-3.096-.197h2.891v-.557h-2.11v-5.264h-.781v5.822z"/><use xlink:href="#B" x="30.998"/><path d="M139.532 49.21c-.73 0-1.323-.225-1.768-.664s-.667-1.092-.667-1.942v-3.671h1.186v3.671c0 .507.114.884.331 1.126s.524.36.929.36.701-.118.924-.36.331-.619.331-1.126v-3.671h1.186v3.671c0 .85-.228 1.503-.679 1.942s-1.049.664-1.779.664h.006zm-2.236-6.081v3.474c0 .794.206 1.402.61 1.802s.953.608 1.62.608 1.232-.203 1.636-.608c.411-.4.616-1.008.616-1.802v-3.474h-.781v3.474c0 .557-.125.98-.382 1.261s-.616.422-1.072.422-.821-.141-1.083-.422-.388-.704-.388-1.261v-3.474h-.781.005zm14.872-.102l-2.03 3.829v2.196h-.992v-2.196l-2.036-3.829h1.141l1.397 2.787 1.397-2.787h1.123z"/><path d="M150.241 49.148h-1.198v-2.263l-2.104-3.958h1.369l.028.056 1.312 2.607 1.34-2.663h1.351l-2.098 3.953v2.269zm-.993-.197h.793l.011-2.139 1.956-3.688h-.895l-1.46 2.916-1.46-2.916h-.912l1.973 3.727v2.094l-.006.006zm8.548-1.205h-2.571l-.468 1.306h-1.055l2.247-5.929h1.135l2.235 5.929h-1.055l-.468-1.306zm-.279-.749l-1.009-2.815-1.01 2.815h2.019z"/><path d="M159.462 49.148h-1.272l-.468-1.306h-2.435l-.467 1.306h-1.272l2.321-6.126h1.272l2.315 6.126h.006zm-1.13-.203h.839l-2.162-5.726h-.992l-2.172 5.726h.838l.467-1.306h2.721l.461 1.306zm-.672-1.858h-2.304l1.152-3.209 1.152 3.209zm-2.019-.197h1.739l-.867-2.415-.866 2.415h-.006zm9.454 1.379c-.142.253-.365.456-.655.608s-.656.231-1.084.231-.787-.073-1.112-.22c-.331-.146-.593-.349-.787-.608-.194-.265-.308-.563-.336-.907h1.055a1.06 1.06 0 0 0 .342.676c.2.186.468.282.798.282.303 0 .531-.079.696-.236s.245-.366.245-.614c0-.214-.063-.394-.182-.535a1.28 1.28 0 0 0-.451-.332c-.177-.079-.422-.169-.73-.276-.382-.118-.69-.236-.929-.36-.24-.118-.439-.293-.61-.518-.166-.225-.251-.524-.251-.895 0-.321.08-.608.239-.85s.394-.434.69-.569c.297-.13.645-.197 1.038-.197.622 0 1.118.146 1.483.445a1.69 1.69 0 0 1 .627 1.16h-1.061a1.03 1.03 0 0 0-.325-.586c-.177-.164-.416-.242-.718-.242-.274 0-.496.068-.667.208s-.251.343-.251.602c0 .203.057.372.171.507s.262.236.439.315l.724.27c.388.118.701.236.947.36a1.7 1.7 0 0 1 .621.535c.171.236.257.541.257.923 0 .298-.074.569-.217.822"/><path d="M163.356 49.21c-.427 0-.815-.073-1.157-.225a2.04 2.04 0 0 1-.827-.642c-.205-.276-.325-.597-.354-.957l-.011-.107h1.254l.012.09a.96.96 0 0 0 .308.614c.182.169.416.253.73.253.273 0 .479-.068.627-.208.142-.141.217-.321.217-.546 0-.191-.052-.343-.154-.467a1.25 1.25 0 0 0-.417-.304 8.54 8.54 0 0 0-.724-.27c-.376-.118-.696-.242-.941-.366-.251-.124-.467-.31-.644-.552s-.268-.563-.268-.952a1.61 1.61 0 0 1 .256-.906c.171-.259.422-.462.736-.602s.673-.208 1.078-.208c.644 0 1.163.158 1.545.467a1.75 1.75 0 0 1 .662 1.227l.011.113h-1.26l-.017-.085a.93.93 0 0 0-.291-.529c-.154-.146-.371-.214-.65-.214-.251 0-.451.062-.599.186s-.217.293-.217.524c0 .186.046.326.149.445.108.124.239.219.399.287l.713.265c.382.118.707.242.958.366a1.84 1.84 0 0 1 .655.563c.183.248.274.58.274.98a1.74 1.74 0 0 1-.228.873c-.154.271-.388.484-.696.648-.308.158-.684.242-1.129.242zm-2.127-1.728a1.6 1.6 0 0 0 .308.743c.183.248.434.439.747.58s.673.208 1.078.208.753-.073 1.032-.22a1.45 1.45 0 0 0 .616-.574c.137-.236.205-.495.205-.771 0-.36-.08-.648-.234-.861-.159-.22-.359-.389-.587-.501-.239-.118-.553-.242-.929-.355l-.73-.276c-.189-.084-.348-.197-.474-.343-.131-.152-.194-.343-.194-.574 0-.287.097-.518.286-.676.188-.152.433-.231.729-.231.331 0 .599.09.793.27a1.18 1.18 0 0 1 .337.557h.866c-.068-.405-.256-.726-.576-.985-.347-.276-.826-.422-1.42-.422-.376 0-.707.068-.992.191-.279.124-.496.304-.65.529-.148.225-.222.495-.222.799 0 .344.08.631.228.839a1.55 1.55 0 0 0 .576.49c.234.118.542.236.912.355l.742.276a1.4 1.4 0 0 1 .484.355c.137.158.206.36.206.597a.91.91 0 0 1-.28.687c-.182.175-.439.265-.764.265-.359 0-.65-.101-.867-.31-.194-.18-.313-.4-.359-.648h-.855l-.012.006zm9.957.264h-2.578l-.467 1.306h-1.055l2.246-5.929h1.129l2.242 5.929h-1.055l-.462-1.306zm-.28-.749l-1.009-2.815-1.009 2.815h2.018z"/><path d="M172.851 49.148h-1.272l-.468-1.306h-2.435l-.467 1.306h-1.272l2.321-6.126h1.272l2.309 6.126h.012zm-1.129-.203h.838l-2.161-5.726h-.993l-2.167 5.726h.839l.467-1.306h2.72l.468 1.306h-.011zm-.673-1.858h-2.304l1.152-3.209 1.152 3.209zm-2.019-.197h1.734l-.867-2.415-.867 2.415zm-6.233 2.196c.103-.107.234-.158.388-.158s.28.051.388.158.16.231.16.389-.052.276-.16.383c-.103.101-.234.152-.388.152s-.285-.051-.388-.152a.52.52 0 0 1-.159-.383c0-.152.051-.282.159-.383"/><path d="M163.185 50.105c-.182 0-.336-.062-.462-.186-.125-.118-.188-.27-.188-.45s.063-.332.188-.456.28-.186.462-.186.337.062.456.186c.126.124.189.276.189.456s-.063.332-.189.45c-.125.124-.279.186-.456.186zm-.388-1.019l.069.067a.43.43 0 0 0-.131.315c0 .124.04.225.131.31a.46.46 0 0 0 .633 0c.085-.084.125-.186.125-.31 0-.13-.04-.231-.131-.315-.085-.084-.194-.13-.313-.13a.44.44 0 0 0-.32.13l-.068-.067h.005z"/></g><defs ><path id="B" d="M107.188 43.027v3.575c0 .535.12.935.359 1.194.24.265.576.394 1.009.394s.759-.13.998-.394.36-.659.36-1.194v-3.575h.986v3.575c0 .828-.217 1.447-.65 1.875-.433.422-1.004.636-1.711.636s-1.266-.214-1.693-.636-.639-1.047-.639-1.875v-3.575h.987-.006z"/></defs></svg>