<svg xmlns="http://www.w3.org/2000/svg" width="262" height="57" fill="none" xmlns:v="https://vecta.io/nano"><g clip-path="url(#A)"><g fill="#003da6"><path d="M262 28.639c-.267 5.228-1.544 10.065-4.371 14.404-2.493 3.818-5.661 6.972-9.68 9.176-3.18 1.745-6.575 2.934-10.197 3.381-.278.034-.357-.068-.437-.306-.386-1.172-.414-2.407-.579-3.614-.335-2.486-.63-4.984-.551-7.493.165-4.882 1.874-9.13 5.417-12.58.766-.748 1.549-1.478 2.424-2.101 3.707-2.634 7.744-4.594 12.178-5.67a43.85 43.85 0 0 1 4.927-.923c.273-.034.347.028.398.3a28.72 28.72 0 0 1 .477 5.415m-50.92-1.259c2.436.102 4.866.232 7.244.793 1.505.357 2.992.799 4.4 1.444 4.054 1.863 6.552 5.035 7.795 9.261.494 1.671.574 3.398.704 5.115.233 3.075-.034 6.117-.602 9.136-.125.663-.295 1.314-.414 1.971-.051.294-.159.351-.449.306-2.554-.419-5.024-1.144-7.352-2.277-4.996-2.43-9.043-5.953-11.871-10.739-2.112-3.568-3.452-7.437-3.826-11.605-.085-.974-.131-1.948-.148-2.923 0-.323.114-.447.432-.459 1.362-.051 2.725-.113 4.087-.034"/></g><path d="M234.386 36.795c-.171-.929-.262-1.858-.318-2.792l-.744-13.044-.585-6.961c-.392-2.872-1.141-5.653-2.197-8.36-.556-1.427-1.238-2.787-1.953-4.135-.13-.255-.125-.346.182-.402 1.601-.306 3.207-.51 4.837-.561.216-.006.301.062.363.255l.358 1.246 1.675 4.571a50.25 50.25 0 0 0 3.792 7.607l1.522 2.39c.244.346.505.691.857.929.306.21.369.459.375.799.039 2.101.147 4.191.567 6.259l.295 1.11c.091.249.04.368-.176.51-2.083 1.359-3.917 2.996-5.501 4.911a19.54 19.54 0 0 0-3.156 5.375c-.04.102-.034.244-.193.3" fill="#00b2e3"/><path d="M230.667 32.004c-.681-.872-1.323-1.643-2.078-2.305-1.402-1.246-2.952-2.243-4.655-3.036-1.459-.68-2.975-1.155-4.519-1.558a.54.54 0 0 1-.392-.34l-2.038-4.333c-1.425-2.821-3.077-5.5-4.945-8.049-.165-.227-.182-.374 0-.606.75-.991 1.55-1.937 2.402-2.838.176-.187.278-.244.494-.028l5.637 5.222c1.834 1.608 3.781 3.041 5.859 4.31 1.056.64 2.174 1.144 3.35 1.524a.41.41 0 0 1 .34.447l.131 2.532.42 9.062" fill="#86c441"/><path d="M229.759 16.484c-.261-.04-.489-.181-.716-.3-2.06-1.054-3.917-2.419-5.671-3.903l-5.927-5.432c-.341-.34-.341-.34.051-.64.868-.668 1.754-1.331 2.725-1.835l4.729-2.186c.233-.085.318-.017.426.176.92 1.62 1.817 3.262 2.424 5.018 1.011 2.923 1.72 5.919 1.993 9.011 0 .023-.017.045-.034.091z" fill="#f5a800"/><path d="M245.803 16.638c.125-3.245.783-6.383 2.072-9.363l1.09-2.237c.13-.266.25-.147.392-.051 1.555 1.099 3.071 2.237 4.422 3.58l2.01 2.186c.227.261.182.379-.062.583-1.863 1.569-3.753 3.098-5.808 4.401l-3.764 2.175c-.318.147-.415.108-.386-.244.028-.34.022-.685.028-1.031" fill="#00b2e3"/><path d="M245.956 21.592c-.029-.113.057-.17.187-.21 1.698-.555 3.191-1.512 4.707-2.43 2.43-1.461 4.638-3.212 6.807-5.024.21-.176.295-.17.426.074.936 1.75 1.799 3.534 2.446 5.415.103.295-.017.329-.255.363-1.834.255-3.628.719-5.428 1.127-2.85.646-5.472 1.824-8.05 3.138-.443.227-.448.227-.545-.266-.136-.714-.227-1.433-.301-2.192" fill="#86c441"/><path d="M237.304.771c1.044.091 2.049.266 3.037.481 1.913.419 3.764 1.042 5.552 1.846.29.13.318.227.176.51-1.214 2.385-2.14 4.871-2.764 7.482l-.426 1.926c-.999-.935-4.82-9.317-5.575-12.246z" fill="#f5a800"/><g fill="#00b2e3"><path d="M209.519 15.918c2.254 2.809 4.02 5.896 5.598 9.125-.358 0-.693.023-1.028.011-2.316-.085-4.626-.096-6.937.125-.239.023-.358.028-.318-.289a27.39 27.39 0 0 1 2.6-8.87c.017-.034.046-.057.085-.102zM16.935 27.574c0-4.973-2.305-6.712-4.797-6.712s-7.573 1.643-7.573 9.057v10.886H0V6.215h4.565v15.82c.988-3.33 4.048-5.211 7.903-5.211 5.081 0 9.033 3.189 9.033 10.75v13.237h-4.564V27.574zm33.212 9.384c-3.009 3.381-6.818 4.367-10.304 4.367-8.187 0-13.268-5.494-13.268-12.155S31.94 16.828 39.23 16.828c6.211 0 11.996 3.988 11.996 12.67H31.14c-.142 4.554 3.531 7.794 8.749 7.794 2.822 0 5.365-.94 7.715-2.957l2.543 2.628v-.006zM31.566 25.976h14.96c-1.272-4.271-4.61-5.166-7.199-5.166-2.776 0-6.211 1.082-7.761 5.166zm29.351-3.331c.8-3.71 3.389-5.817 6.302-5.817.846 0 1.504.232 2.163.515v4.458c-.755-.425-1.646-.612-2.492-.612-1.55 0-5.978.753-5.978 10.75v8.87h-4.565V17.344h4.565v5.302h.006z"/></g><g fill="#003da6"><path d="M113.029 16.828c3.15 0 6.256 1.082 8.515 4.271v-3.755h4.565V40.81h-4.565v-3.755c-2.259 3.189-5.365 4.271-8.515 4.271-7.057 0-11.667-5.539-11.667-12.251s4.61-12.251 11.667-12.251v.006zm.562 4.033c-4.894 0-7.67 3.755-7.67 8.213s2.776 8.213 7.67 8.213 7.999-3.472 8.044-8.213c-.045-4.741-3.292-8.213-8.044-8.213zm30.345 2.443c-.755-2.113-2.209-2.583-3.668-2.583-2.117 0-3.48 1.314-3.48 3.002 0 1.546 1.414 2.345 2.822 2.815l3.389 1.127c4.468 1.359 5.643 4.129 5.643 6.616 0 4.458-3.906 7.04-8.47 7.04-4.139 0-8-2.113-9.078-6.151l4.048-.986c.562 1.875 2.679 3.24 5.081 3.24s4.048-1.359 4.048-3.189c0-1.597-1.317-2.396-2.964-2.957l-3.151-1.082c-3.764-1.127-5.785-3.143-5.785-6.383 0-3.988 3.106-6.995 7.761-6.995 3.293 0 6.54 1.359 7.857 5.585l-4.048.895-.005.006zm15.851 10.421c0 2.583 1.271 3.614 2.821 3.614 1.459 0 2.873-.844 2.873-2.583 0-.328-.046-1.223-.375-1.926h3.997c.426.94.426 2.538.426 2.538 0 3.336-2.402 5.964-6.966 5.964-3.719 0-7.341-1.926-7.341-7.935V20.913h-3.855v-3.568h3.855l1.033-6.757h3.532v6.757h7.482v3.568h-7.482v12.812zm23.941-16.897c3.15 0 6.256 1.082 8.515 4.271v-3.755h4.565V40.81h-4.565v-3.755c-2.259 3.189-5.365 4.271-8.515 4.271-7.057 0-11.667-5.539-11.667-12.251s4.61-12.251 11.667-12.251v.006zm.562 4.033c-4.894 0-7.67 3.755-7.67 8.213s2.776 8.213 7.67 8.213 7.999-3.472 8.044-8.213c-.045-4.741-3.293-8.213-8.044-8.213zm-106.58 9.72c0 4.973 2.305 6.712 4.797 6.712s7.573-1.643 7.573-9.057V17.344h4.565v37.269H90.08V36.12c-.988 3.331-4.048 5.211-7.903 5.211-5.081 0-9.032-3.189-9.032-10.75V17.344h4.565v13.237z"/><path d="M142.533 42.492c0 1.473-1.197 2.662-2.668 2.662a2.67 2.67 0 0 1-2.668-2.662 2.67 2.67 0 0 1 2.668-2.662c1.471 0 2.668 1.189 2.668 2.662zm-38.826 11.17c-.29.527-.704.929-1.255 1.224-.551.289-1.209.436-1.976.436h-2.339v-6.978h2.339c.767 0 1.425.142 1.976.43s.971.691 1.255 1.212c.289.521.431 1.133.431 1.835s-.142 1.32-.431 1.847v-.006zm-1.391-.011c.448-.436.675-1.042.675-1.83s-.227-1.393-.675-1.829-1.096-.651-1.931-.651h-1.118v4.962h1.118c.841 0 1.482-.215 1.931-.651z"/><path d="M100.476 55.435h-2.452v-7.21h2.452c.784 0 1.465.147 2.033.442a3.07 3.07 0 0 1 1.305 1.257c.295.538.449 1.172.449 1.892s-.148 1.359-.449 1.897c-.295.544-.732.969-1.305 1.269s-1.249.447-2.033.447v.006zm-2.219-.238h2.219c.744 0 1.391-.142 1.925-.419a2.87 2.87 0 0 0 1.209-1.172c.278-.504.42-1.11.42-1.79s-.142-1.28-.42-1.784c-.272-.498-.681-.889-1.209-1.161-.534-.278-1.181-.419-1.925-.419h-2.219v6.746zm2.135-.787h-1.238v-5.194h1.238c.863 0 1.544.232 2.01.685s.71 1.099.71 1.909-.239 1.456-.71 1.915c-.471.453-1.147.685-2.01.685zm-1.005-.232h1.005c.806 0 1.425-.21 1.851-.617.426-.413.636-.997.636-1.744s-.216-1.337-.636-1.745c-.426-.413-1.05-.623-1.851-.623h-1.005v4.73zm12.325-5.473c.522.306.936.725 1.237 1.269s.454 1.156.454 1.841-.153 1.303-.454 1.841a3.3 3.3 0 0 1-1.237 1.274c-.523.306-1.113.459-1.76.459s-1.244-.153-1.766-.459a3.36 3.36 0 0 1-1.243-1.274c-.306-.543-.454-1.155-.454-1.841s.153-1.297.454-1.841a3.3 3.3 0 0 1 1.243-1.269c.522-.3 1.113-.453 1.766-.453a3.48 3.48 0 0 1 1.76.453zm-2.958.901c-.352.204-.625.498-.818.878s-.295.827-.295 1.337.097.951.295 1.331a2.06 2.06 0 0 0 .818.884 2.34 2.34 0 0 0 1.198.306c.448 0 .84-.102 1.186-.306a2.08 2.08 0 0 0 .812-.884c.193-.38.295-.827.295-1.331s-.096-.952-.295-1.337c-.193-.38-.465-.674-.812-.878a2.3 2.3 0 0 0-1.186-.306c-.442 0-.846.102-1.198.306z"/><path d="M109.957 55.513c-.67 0-1.289-.159-1.828-.476s-.971-.759-1.289-1.32c-.312-.555-.471-1.195-.471-1.897s.159-1.342.471-1.898.744-1.003 1.289-1.314c.539-.312 1.158-.47 1.828-.47s1.278.159 1.817.47.971.753 1.283 1.314.465 1.201.465 1.898a3.89 3.89 0 0 1-.465 1.897 3.38 3.38 0 0 1-1.283 1.32c-.539.317-1.153.476-1.817.476zm0-7.148c-.63 0-1.203.147-1.714.436s-.909.702-1.198 1.229c-.295.521-.443 1.127-.443 1.784s.148 1.263.443 1.79c.295.521.698.94 1.203 1.235s1.079.442 1.709.442 1.198-.147 1.698-.442a3.18 3.18 0 0 0 1.198-1.235c.289-.521.437-1.127.437-1.79s-.148-1.263-.437-1.784-.693-.934-1.193-1.229c-.505-.289-1.078-.436-1.703-.436zm0 6.089c-.471 0-.891-.108-1.26-.323s-.659-.527-.863-.929c-.205-.397-.307-.861-.307-1.388s.102-.991.307-1.388a2.16 2.16 0 0 1 .863-.923c.363-.215.789-.323 1.254-.323a2.4 2.4 0 0 1 1.244.323c.363.21.653.521.857.923.204.396.307.867.307 1.388s-.103.991-.307 1.388a2.23 2.23 0 0 1-.857.929c-.364.215-.778.323-1.244.323h.006zm-.006-5.041c-.425 0-.811.096-1.141.289a1.96 1.96 0 0 0-.772.833c-.182.363-.278.799-.278 1.28s.097.918.278 1.28.443.64.772.833a2.23 2.23 0 0 0 1.141.289c.425 0 .801-.096 1.125-.289a1.99 1.99 0 0 0 .766-.833c.187-.363.278-.793.278-1.28a2.83 2.83 0 0 0-.278-1.28c-.182-.362-.443-.64-.766-.833s-.704-.289-1.125-.289zm7.159 5.025h2.413v.878h-3.542v-6.978h1.129v6.1z"/><path d="M119.643 55.435h-3.781v-7.21h1.362v6.1h2.419v1.11zm-3.549-.232h3.316v-.651h-2.419v-6.1h-.897v6.746.006zm6.83-6.865v4.14c0 .623.136 1.082.409 1.382.272.306.659.453 1.152.453s.869-.153 1.147-.453c.273-.306.409-.765.409-1.382v-4.14h1.13v4.14c0 .957-.25 1.682-.744 2.169-.494.493-1.147.736-1.959.736s-1.453-.243-1.941-.736-.733-1.212-.733-2.169v-4.14h1.13z"/><path d="M124.468 55.503c-.834 0-1.516-.261-2.027-.77s-.766-1.269-.766-2.249v-4.259h1.363v4.259c0 .589.13 1.025.38 1.308s.602.419 1.067.419.806-.136 1.062-.419c.255-.277.38-.719.38-1.308v-4.259h1.363v4.259c0 .986-.261 1.739-.778 2.254-.517.51-1.204.77-2.044.77v-.006zm-2.56-7.04v4.027c0 .918.238 1.626.698 2.09.466.465 1.09.702 1.862.702s1.408-.238 1.879-.702.71-1.167.71-2.09v-4.027h-.897v4.027c0 .646-.148 1.139-.443 1.461-.295.329-.709.493-1.232.493s-.942-.164-1.237-.493c-.296-.323-.443-.816-.443-1.461v-4.027h-.897zm17.35 5.199c-.29.527-.704.929-1.255 1.224-.551.289-1.209.436-1.976.436h-2.339v-6.978h2.339c.767 0 1.425.142 1.976.43s.971.691 1.255 1.212.431 1.133.431 1.835-.142 1.32-.431 1.847v-.006zm-1.391-.011c.448-.436.675-1.042.675-1.83s-.227-1.393-.675-1.829-1.096-.651-1.931-.651h-1.118v4.962h1.118c.841 0 1.482-.215 1.931-.651z"/><path d="M136.021 55.435h-2.452v-7.21h2.452c.784 0 1.465.147 2.033.442s1.01.719 1.306 1.257.448 1.172.448 1.892-.147 1.359-.448 1.897c-.296.544-.733.969-1.306 1.269s-1.249.447-2.033.447v.006zm-2.219-.238h2.219c.744 0 1.391-.142 1.925-.419a2.87 2.87 0 0 0 1.209-1.172c.278-.504.42-1.11.42-1.79s-.142-1.28-.42-1.784c-.272-.498-.681-.889-1.209-1.161-.534-.278-1.181-.419-1.925-.419h-2.219v6.746zm2.134-.787h-1.237v-5.194h1.237c.863 0 1.544.232 2.01.685s.71 1.099.71 1.909-.239 1.456-.71 1.915c-.471.453-1.147.685-2.01.685zm-1.005-.232h1.005c.806 0 1.425-.21 1.851-.617.426-.413.636-.997.636-1.744s-.216-1.337-.636-1.745c-.426-.413-1.05-.623-1.851-.623h-1.005v4.73zm12.332-5.473c.522.306.936.725 1.237 1.269s.454 1.156.454 1.841-.153 1.303-.454 1.841a3.3 3.3 0 0 1-1.237 1.274c-.523.306-1.113.459-1.76.459s-1.244-.153-1.766-.459a3.36 3.36 0 0 1-1.243-1.274c-.306-.543-.454-1.155-.454-1.841s.153-1.297.454-1.841a3.3 3.3 0 0 1 1.243-1.269c.522-.3 1.113-.453 1.766-.453a3.48 3.48 0 0 1 1.76.453zm-2.958.901c-.352.204-.625.498-.818.878s-.295.827-.295 1.337.097.951.295 1.331a2.06 2.06 0 0 0 .818.884 2.34 2.34 0 0 0 1.198.306c.448 0 .84-.102 1.186-.306a2.08 2.08 0 0 0 .812-.884c.193-.38.295-.827.295-1.331s-.096-.952-.295-1.337c-.193-.38-.465-.674-.812-.878s-.743-.306-1.186-.306-.846.102-1.198.306z"/><path d="M145.503 55.513c-.67 0-1.289-.159-1.828-.476a3.51 3.51 0 0 1-1.289-1.32c-.312-.555-.471-1.195-.471-1.897s.159-1.342.471-1.898a3.37 3.37 0 0 1 1.289-1.314c.539-.312 1.158-.47 1.828-.47s1.277.159 1.816.47.971.753 1.283 1.314a3.91 3.91 0 0 1 .466 1.898c0 .697-.159 1.342-.466 1.897a3.38 3.38 0 0 1-1.283 1.32c-.539.317-1.152.476-1.816.476zm0-7.148c-.631 0-1.204.147-1.715.436-.505.289-.908.702-1.198 1.229-.295.521-.443 1.127-.443 1.784s.148 1.263.443 1.79c.295.521.698.94 1.204 1.235s1.078.442 1.709.442 1.197-.147 1.697-.442a3.18 3.18 0 0 0 1.198-1.235c.29-.521.437-1.127.437-1.79s-.147-1.263-.437-1.784-.693-.934-1.192-1.229c-.506-.289-1.079-.436-1.703-.436zm0 6.089c-.472 0-.892-.108-1.261-.323s-.658-.527-.863-.929c-.204-.397-.306-.861-.306-1.388s.102-.991.306-1.388c.205-.402.494-.714.863-.923.364-.215.789-.323 1.255-.323s.88.108 1.243.323c.364.21.653.521.858.923.204.396.306.867.306 1.388s-.102.991-.306 1.388c-.205.402-.494.714-.858.929s-.778.323-1.243.323h.006zm-.006-5.041c-.426 0-.812.096-1.141.289a1.96 1.96 0 0 0-.772.833c-.188.362-.279.799-.279 1.28s.097.918.279 1.28.442.64.772.833a2.23 2.23 0 0 0 1.141.289c.426 0 .8-.096 1.124-.289s.585-.47.766-.833c.188-.363.279-.793.279-1.28a2.83 2.83 0 0 0-.279-1.28c-.187-.363-.442-.64-.766-.833s-.704-.289-1.124-.289zm7.159 5.025h2.418v.878h-3.548v-6.978h1.13v6.1z"/><path d="M155.188 55.435h-3.781v-7.21h1.363v6.1h2.418v1.11zm-3.548-.232h3.315v-.651h-2.418v-6.1h-.897v6.746.006zm6.835-6.865v4.14c0 .623.136 1.082.409 1.382.272.306.658.453 1.152.453s.869-.153 1.147-.453c.273-.306.409-.765.409-1.382v-4.14h1.13v4.14c0 .957-.25 1.682-.744 2.169-.494.493-1.147.736-1.959.736s-1.453-.243-1.941-.736-.733-1.212-.733-2.169v-4.14h1.13z"/><path d="M160.019 55.503c-.834 0-1.516-.261-2.026-.77s-.767-1.269-.767-2.249v-4.259h1.363v4.259c0 .589.13 1.025.38 1.308s.602.419 1.067.419.806-.136 1.062-.419c.255-.277.38-.719.38-1.308v-4.259h1.363v4.259c0 .986-.261 1.739-.778 2.254-.517.51-1.203.77-2.044.77v-.006zm-2.56-7.04v4.027c0 .918.233 1.626.698 2.09s1.09.702 1.862.702 1.408-.238 1.879-.702.71-1.167.71-2.09v-4.027h-.897v4.027c0 .646-.147 1.139-.443 1.461-.295.329-.709.493-1.232.493s-.942-.164-1.237-.493c-.296-.323-.443-.816-.443-1.461v-4.027h-.897zm17.054-.125l-2.327 4.435v2.543h-1.141v-2.543l-2.339-4.435h1.311l1.601 3.234 1.607-3.234h1.288z"/><path d="M172.299 55.435h-1.368v-2.628l-2.413-4.582h1.567l.034.062 1.499 3.025 1.533-3.087h1.55l-2.402 4.582v2.628zm-1.141-.232h.908l.012-2.481 2.242-4.271h-1.027l-1.675 3.376-1.675-3.376h-1.045l2.26 4.322v2.424.006zm9.805-1.399h-2.953l-.533 1.512h-1.209l2.577-6.87h1.3l2.566 6.87h-1.209l-.534-1.512h-.005zm-.318-.872l-1.158-3.262-1.159 3.262h2.317z"/><path d="M182.87 55.429h-1.459l-.533-1.512h-2.788l-.534 1.512h-1.459l2.663-7.103h1.459l2.651 7.103zm-1.294-.232h.959l-2.481-6.638h-1.135l-2.487 6.638h.96l.533-1.512h3.117l.534 1.512zm-.772-2.152h-2.646l1.323-3.721 1.323 3.721zm-2.316-.232h1.992l-.999-2.804-.993 2.804zm10.843 1.596c-.165.295-.414.527-.749.708s-.75.266-1.238.266a3.11 3.11 0 0 1-1.277-.249c-.375-.17-.676-.402-.903-.708-.227-.3-.352-.651-.386-1.048h1.209a1.25 1.25 0 0 0 .392.782c.227.221.533.323.914.323.346 0 .607-.091.8-.278.188-.181.284-.425.284-.714 0-.249-.068-.459-.21-.617a1.39 1.39 0 0 0-.516-.38c-.205-.091-.483-.198-.841-.317a7.53 7.53 0 0 1-1.067-.414c-.278-.136-.505-.34-.698-.6s-.29-.606-.29-1.037c0-.374.091-.702.278-.986a1.8 1.8 0 0 1 .795-.657c.341-.153.738-.232 1.187-.232.715 0 1.277.17 1.697.515a1.93 1.93 0 0 1 .716 1.342h-1.221a1.19 1.19 0 0 0-.369-.674c-.199-.187-.477-.283-.829-.283-.318 0-.573.079-.761.244s-.289.397-.289.697c0 .238.068.43.198.589a1.44 1.44 0 0 0 .5.368c.199.091.477.193.829.312a7.21 7.21 0 0 1 1.084.419 1.96 1.96 0 0 1 .716.617c.193.272.295.623.295 1.065 0 .346-.085.663-.25.952"/><path d="M187.344 55.503a3.28 3.28 0 0 1-1.323-.261 2.39 2.39 0 0 1-.948-.742c-.238-.323-.375-.697-.409-1.11l-.011-.125h1.436l.012.102c.028.278.147.51.357.708s.483.295.835.295c.312 0 .551-.079.715-.244s.25-.368.25-.629c0-.221-.057-.402-.182-.544a1.35 1.35 0 0 0-.477-.351 8.89 8.89 0 0 0-.828-.311c-.438-.136-.801-.278-1.085-.419a2.05 2.05 0 0 1-.738-.64c-.204-.283-.306-.657-.306-1.104a1.93 1.93 0 0 1 .295-1.053c.199-.3.482-.538.84-.702.358-.159.772-.244 1.238-.244.738 0 1.334.181 1.771.538.443.362.698.838.761 1.422l.011.125h-1.442l-.017-.096c-.045-.238-.159-.442-.335-.612-.182-.17-.426-.249-.749-.249-.29 0-.517.074-.687.215s-.244.34-.244.606a.77.77 0 0 0 .17.515 1.2 1.2 0 0 0 .46.334 11.43 11.43 0 0 0 .817.306c.437.136.812.283 1.102.425a2.08 2.08 0 0 1 .755.651c.21.289.312.674.312 1.133 0 .363-.091.702-.261 1.014s-.443.566-.801.753c-.352.187-.789.283-1.294.283v.011zm-2.436-2.016c.046.323.165.612.352.867a2.07 2.07 0 0 0 .858.668c.357.159.772.244 1.232.244s.868-.085 1.186-.255.551-.385.704-.663c.153-.272.233-.578.233-.901 0-.413-.091-.748-.273-.997a1.87 1.87 0 0 0-.67-.583 7.11 7.11 0 0 0-1.067-.413l-.84-.317a1.47 1.47 0 0 1-.539-.396c-.148-.176-.227-.397-.227-.663 0-.334.107-.6.329-.782.216-.181.494-.272.84-.272.38 0 .687.108.908.311a1.31 1.31 0 0 1 .386.646h.994c-.08-.47-.295-.838-.659-1.138-.397-.323-.942-.487-1.629-.487a2.77 2.77 0 0 0-1.141.221c-.318.142-.568.351-.744.617-.17.266-.255.572-.255.923 0 .402.091.731.267.969a1.75 1.75 0 0 0 .658.566 6.95 6.95 0 0 0 1.05.408l.852.323a1.57 1.57 0 0 1 .556.413c.159.181.239.413.239.691a1.06 1.06 0 0 1-.318.793c-.21.204-.505.306-.88.306-.415 0-.75-.119-.994-.357a1.39 1.39 0 0 1-.414-.748h-.977l-.017.006zm11.412.317h-2.952l-.534 1.512h-1.209l2.577-6.87h1.3l2.566 6.87h-1.209l-.533-1.512h-.006zm-.318-.872l-1.158-3.262-1.158 3.262h2.316z"/><path d="M198.227 55.429h-1.459l-.533-1.512h-2.788l-.534 1.512h-1.459l2.663-7.103h1.459l2.651 7.103zm-1.294-.232h.959l-2.481-6.638h-1.135l-2.487 6.638h.96l.533-1.512h3.117l.534 1.512zm-.772-2.152h-2.646l1.323-3.721 1.323 3.721zm-2.317-.232h1.993l-.993-2.804-.994 2.804h-.006zm-7.147 2.542a.59.59 0 0 1 .443-.181.61.61 0 0 1 .624.629.6.6 0 0 1-.182.442c-.119.119-.266.176-.442.176a.6.6 0 0 1-.625-.618.62.62 0 0 1 .182-.447z"/><path d="M187.14 56.539c-.205 0-.381-.074-.528-.215s-.216-.317-.216-.521.074-.385.216-.527c.142-.147.323-.215.528-.215a.74.74 0 0 1 .528.215.73.73 0 0 1 .215.532c0 .21-.073.38-.215.521s-.318.215-.523.215l-.005-.006zm-.437-1.172l.085.079c-.097.102-.148.221-.148.362s.051.261.148.357a.52.52 0 0 0 .726 0c.103-.096.148-.215.148-.357s-.045-.266-.148-.368a.47.47 0 0 0-.363-.147.5.5 0 0 0-.363.147l-.085-.079v.006z"/></g></g><defs><clipPath id="A"><path fill="#fff" transform="translate(0 .539)" d="M0 0h262v56H0z"/></clipPath></defs></svg>