<svg width="230" height="51" viewBox="0 0 230 51" fill="none" xmlns="http://www.w3.org/2000/svg">
<path d="M230 25.5C230 39.5816 218.436 51 204.174 51C189.912 51 178.348 39.5816 178.348 25.5C178.348 11.4184 189.907 0 204.168 0C218.43 0 229.994 11.4184 229.994 25.5" fill="white"/>
<path d="M228.335 25.9898C228.101 30.4998 226.989 34.6719 224.52 38.4161C222.348 41.7099 219.582 44.435 216.075 46.338C213.304 47.8414 210.344 48.8661 207.185 49.2546C206.945 49.2827 206.871 49.1983 206.803 48.99C206.466 47.9765 206.438 46.9123 206.295 45.8707C205.999 43.7255 205.748 41.5691 205.816 39.4014C205.959 35.1899 207.447 31.5245 210.538 28.546C211.211 27.8985 211.895 27.2736 212.653 26.7331C215.887 24.4584 219.405 22.7693 223.271 21.8403C224.685 21.4968 226.117 21.2265 227.565 21.0407C227.805 21.007 227.867 21.0633 227.913 21.2997C228.21 22.8706 228.335 24.4584 228.329 25.973" fill="#164188"/>
<path d="M183.942 24.8919C186.063 24.9764 188.179 25.089 190.26 25.5732C191.572 25.8829 192.866 26.2657 194.098 26.8231C197.633 28.4278 199.812 31.1698 200.895 34.8183C201.323 36.2597 201.397 37.7517 201.511 39.2325C201.711 41.8844 201.482 44.5082 200.986 47.115C200.878 47.6837 200.73 48.2467 200.627 48.8154C200.582 49.0688 200.485 49.1195 200.234 49.08C198.004 48.7197 195.854 48.0947 193.824 47.115C189.468 45.0205 185.938 41.9801 183.474 37.8474C181.632 34.7676 180.464 31.4288 180.138 27.831C180.064 26.9921 180.024 26.1531 180.007 25.3086C180.007 25.0327 180.104 24.9201 180.384 24.9144C181.57 24.875 182.756 24.8187 183.948 24.8863" fill="#164188"/>
<path d="M204.259 33.0278C204.111 32.2283 204.031 31.4232 203.98 30.618C203.746 26.8682 203.472 23.1183 203.33 19.3629C203.256 17.3472 203.09 15.3484 202.822 13.3553C202.486 10.8779 201.824 8.47936 200.906 6.14275C200.422 4.90969 199.823 3.73858 199.201 2.57309C199.087 2.3535 199.087 2.27468 199.361 2.224C200.758 1.95938 202.161 1.78483 203.581 1.73979C203.769 1.73416 203.843 1.79609 203.9 1.95938C204.02 2.31409 204.094 2.68006 204.208 3.03478C204.653 4.36355 205.143 5.67543 205.668 6.97605C206.58 9.25635 207.686 11.4409 208.975 13.5411C209.403 14.2392 209.831 14.9374 210.304 15.6018C210.515 15.9002 210.743 16.1986 211.051 16.4013C211.319 16.5815 211.37 16.8011 211.376 17.0938C211.41 18.9068 211.501 20.7142 211.872 22.4934C211.94 22.8143 212.015 23.1409 212.129 23.4505C212.208 23.6645 212.163 23.7658 211.975 23.8897C210.161 25.0608 208.559 26.4741 207.179 28.1294C206.01 29.5314 205.098 31.0797 204.43 32.7688C204.396 32.8589 204.396 32.9771 204.265 33.0278" fill="#00ABE1"/>
<path d="M201.015 28.8951C200.422 28.1406 199.857 27.4819 199.201 26.902C197.975 25.8266 196.624 24.9707 195.141 24.2782C193.87 23.6926 192.547 23.2816 191.201 22.9382C191.018 22.8931 190.939 22.7974 190.859 22.6454C190.249 21.4067 189.713 20.1399 189.085 18.9068C187.842 16.4689 186.399 14.1604 184.774 11.9589C184.632 11.7619 184.615 11.638 184.774 11.4353C185.43 10.5795 186.126 9.76308 186.873 8.98609C187.027 8.82844 187.112 8.77776 187.3 8.96357C188.88 10.5232 190.534 12.0152 192.216 13.4735C193.818 14.8586 195.518 16.0973 197.331 17.1952C198.249 17.747 199.224 18.1861 200.251 18.5071C200.467 18.5746 200.536 18.676 200.547 18.8899C200.576 19.6162 200.661 20.3482 200.661 21.0745C200.673 23.6532 200.923 26.2263 201.026 28.8951" fill="#8FBF25"/>
<path d="M200.222 15.5004C199.994 15.4667 199.8 15.3484 199.601 15.2471C197.804 14.335 196.185 13.1582 194.651 11.8745C192.866 10.3824 191.138 8.82281 189.485 7.18437C189.188 6.89159 189.188 6.89159 189.53 6.63259C190.289 6.05829 191.058 5.484 191.908 5.04483C193.248 4.35229 194.594 3.65975 196.031 3.15865C196.236 3.08545 196.305 3.14739 196.402 3.31067C197.206 4.707 197.987 6.12586 198.517 7.64606C199.401 10.1685 200.017 12.7528 200.251 15.4216C200.251 15.4441 200.239 15.461 200.222 15.5004Z" fill="#F4A900"/>
<path d="M214.21 15.6299C214.318 12.8316 214.894 10.1234 216.018 7.55034C216.303 6.89722 216.651 6.26662 216.97 5.61912C217.084 5.38828 217.187 5.48962 217.312 5.57971C218.669 6.52561 219.992 7.51093 221.167 8.67079C221.783 9.27324 222.353 9.90947 222.923 10.557C223.117 10.7822 223.083 10.8835 222.872 11.0581C221.253 12.4094 219.599 13.7325 217.808 14.8529C216.748 15.523 215.676 16.1986 214.524 16.7279C214.244 16.8574 214.164 16.8236 214.187 16.5139C214.21 16.2211 214.204 15.9227 214.216 15.6243" fill="#00ABE1"/>
<path d="M214.347 19.9034C214.324 19.802 214.392 19.757 214.512 19.7232C215.995 19.2446 217.295 18.417 218.618 17.6287C220.734 16.3675 222.667 14.8586 224.554 13.2933C224.737 13.1413 224.811 13.1469 224.925 13.3553C225.746 14.8642 226.499 16.4069 227.057 18.0285C227.143 18.2818 227.04 18.3156 226.835 18.3438C225.238 18.5634 223.676 18.9631 222.102 19.3178C219.622 19.8752 217.329 20.8887 215.082 22.026C214.695 22.2231 214.695 22.2231 214.609 21.7952C214.489 21.1815 214.415 20.5565 214.347 19.9034Z" fill="#8FBF25"/>
<path d="M206.803 1.93685C207.715 2.01568 208.588 2.16207 209.454 2.3535C211.125 2.71947 212.739 3.24873 214.296 3.9469C214.547 4.05951 214.569 4.14396 214.45 4.38607C213.389 6.44116 212.585 8.59196 212.038 10.8441C211.906 11.3903 211.787 11.942 211.667 12.5051C210.794 11.6999 207.464 4.46489 206.808 1.93685" fill="#F4A900"/>
<path d="M182.573 15.005C184.541 17.426 186.074 20.0948 187.454 22.8762C187.141 22.8762 186.85 22.8931 186.559 22.8875C184.541 22.8143 182.528 22.803 180.509 22.9945C180.304 23.017 180.201 23.017 180.23 22.7467C180.555 20.0667 181.302 17.5161 182.499 15.0951C182.51 15.0669 182.539 15.05 182.573 15.0106" fill="#00ABE1"/>
<path d="M14.7692 25.1115C14.7692 20.8212 12.7619 19.3178 10.5836 19.3178C8.40532 19.3178 3.98026 20.7367 3.98026 27.1328V36.5299H0V6.67764H3.98026V20.3313C4.84133 17.4542 7.51004 15.8326 10.8744 15.8326C15.3052 15.8326 18.7494 18.5859 18.7494 25.1059V36.5243H14.7692V25.1059V25.1115Z" fill="#00ABE1"/>
<path d="M43.726 33.208C41.1029 36.1245 37.7784 36.9747 34.7447 36.9747C27.6053 36.9747 23.1746 32.2339 23.1746 26.4853C23.1746 20.7367 27.8505 15.8326 34.2087 15.8326C39.6202 15.8326 44.6668 19.2784 44.6668 26.7668H27.1491C27.0237 30.6968 30.2284 33.4895 34.7789 33.4895C37.2423 33.4895 39.4549 32.6787 41.5077 30.9389L43.7202 33.208H43.726ZM27.5255 23.7321H40.5725C39.4663 20.0442 36.5524 19.2784 34.2942 19.2784C31.8764 19.2784 28.8769 20.2074 27.5255 23.7321Z" fill="#00ABE1"/>
<path d="M53.1177 20.8549C53.8134 17.6512 56.0716 15.8326 58.6148 15.8326C59.3504 15.8326 59.9264 16.0353 60.5023 16.2774V20.1286C59.8465 19.7626 59.0653 19.605 58.3297 19.605C56.9725 19.605 53.1177 20.2525 53.1177 28.8782V36.5355H49.1375V16.2774H53.1177V20.8549Z" fill="#00ABE1"/>
<path d="M98.56 15.8326C101.309 15.8326 104.017 16.7673 105.985 19.5205V16.2774H109.965V36.5299H105.985V33.2868C104.017 36.0401 101.309 36.9747 98.56 36.9747C92.4071 36.9747 88.387 32.1945 88.387 26.4065C88.387 20.6185 92.4071 15.8326 98.56 15.8326ZM99.0504 19.3178C94.785 19.3178 92.3615 22.5609 92.3615 26.4065C92.3615 30.252 94.785 33.4951 99.0504 33.4951C103.316 33.4951 106.024 30.4998 106.064 26.4065C106.024 22.3132 103.19 19.3178 99.0504 19.3178Z" fill="white"/>
<path d="M125.509 21.4236C124.854 19.5994 123.582 19.194 122.31 19.194C120.463 19.194 119.277 20.3257 119.277 21.7839C119.277 23.124 120.508 23.8109 121.734 24.2163L124.688 25.1903C128.583 26.3614 129.609 28.7544 129.609 30.8995C129.609 34.7451 126.205 36.9747 122.225 36.9747C118.615 36.9747 115.251 35.1505 114.304 31.6653L117.834 30.8151C118.324 32.4366 120.172 33.6134 122.265 33.6134C124.358 33.6134 125.795 32.4366 125.795 30.8601C125.795 29.4807 124.648 28.7938 123.211 28.3096L120.463 27.3749C117.178 26.4009 115.416 24.6611 115.416 21.8684C115.416 18.4226 118.125 15.8326 122.185 15.8326C125.053 15.8326 127.887 17.0094 129.033 20.6522L125.504 21.4236H125.509Z" fill="white"/>
<path d="M139.332 30.4153C139.332 32.645 140.438 33.5346 141.79 33.5346C143.061 33.5346 144.293 32.8082 144.293 31.3106C144.293 31.029 144.253 30.2577 143.962 29.6496H147.452C147.823 30.4604 147.823 31.8342 147.823 31.8342C147.823 34.7113 145.73 36.9804 141.75 36.9804C138.511 36.9804 135.352 35.3194 135.352 30.1338V19.3629H131.987V16.2831H135.352L136.253 10.45H139.326V16.2831H145.85V19.3629H139.326V30.421L139.332 30.4153Z" fill="white"/>
<path d="M160.208 15.8326C162.957 15.8326 165.666 16.7673 167.633 19.5205V16.2774H171.613V36.5299H167.633V33.2868C165.66 36.0401 162.957 36.9747 160.208 36.9747C154.056 36.9747 150.035 32.1945 150.035 26.4065C150.035 20.6185 154.056 15.8326 160.208 15.8326ZM160.699 19.3178C156.433 19.3178 154.016 22.5609 154.016 26.4065C154.016 30.252 156.433 33.4951 160.699 33.4951C164.964 33.4951 167.673 30.4998 167.713 26.4065C167.673 22.3132 164.839 19.3178 160.699 19.3178Z" fill="white"/>
<path d="M67.7615 27.7015C67.7615 31.9918 69.7745 33.4951 71.9471 33.4951C74.1197 33.4951 78.5504 32.0763 78.5504 25.6802V16.2831H82.5307V48.4438H78.5504V32.4873C77.6894 35.3644 75.0207 36.986 71.6562 36.986C67.2255 36.986 63.7812 34.2327 63.7812 27.7127V16.2831H67.7615V27.7015Z" fill="white"/>
<path d="M124.289 37.9826C124.289 39.255 123.246 40.2798 121.957 40.2798C120.668 40.2798 119.63 39.2494 119.63 37.9826C119.63 36.7157 120.674 35.6854 121.957 35.6854C123.24 35.6854 124.289 36.7157 124.289 37.9826Z" fill="white"/>
<path d="M90.4285 47.6218C90.1776 48.0722 89.8126 48.4269 89.3336 48.6746C88.8546 48.9224 88.2787 49.0519 87.6115 49.0519H85.5701V43.0274H87.6115C88.2787 43.0274 88.8546 43.1512 89.3336 43.399C89.8126 43.6467 90.1776 43.9958 90.4285 44.4462C90.6794 44.8967 90.8049 45.4259 90.8049 46.034C90.8049 46.6421 90.6794 47.1713 90.4285 47.6274V47.6218ZM89.2139 47.6161C89.6017 47.2445 89.8012 46.7153 89.8012 46.0396C89.8012 45.364 89.6074 44.8347 89.2139 44.4631C88.8204 44.0859 88.2616 43.9001 87.5317 43.9001H86.5566V48.1792H87.5317C88.2616 48.1792 88.8261 47.9934 89.2139 47.6161Z" fill="white"/>
<path d="M87.6115 49.1476H85.4731V42.926H87.6115C88.2958 42.926 88.8889 43.0555 89.3793 43.3089C89.8754 43.5679 90.2575 43.9282 90.5198 44.3956C90.7821 44.8572 90.9075 45.409 90.9075 46.0284C90.9075 46.6477 90.7764 47.1995 90.5198 47.6668C90.2632 48.1341 89.8811 48.5057 89.385 48.7591C88.8946 49.0181 88.2958 49.1476 87.6115 49.1476ZM85.6727 48.9449H87.6115C88.2616 48.9449 88.8262 48.821 89.288 48.5846C89.7499 48.3481 90.1035 48.0046 90.343 47.5711C90.5825 47.1376 90.7079 46.6139 90.7079 46.0284C90.7079 45.4428 90.5882 44.9248 90.343 44.4913C90.1035 44.0634 89.7499 43.7255 89.288 43.4891C88.8262 43.2526 88.2616 43.1287 87.6115 43.1287H85.6727V48.9505V48.9449ZM87.5317 48.2693H86.454V43.7875H87.5317C88.2844 43.7875 88.8775 43.9902 89.288 44.3787C89.6986 44.7728 89.9096 45.3246 89.9096 46.0284C89.9096 46.7322 89.6986 47.2839 89.288 47.6781C88.8775 48.0722 88.2901 48.2693 87.5317 48.2693ZM86.6592 48.0722H87.5317C88.2331 48.0722 88.7748 47.892 89.1455 47.5373C89.5161 47.1826 89.6986 46.6759 89.6986 46.0284C89.6986 45.3809 89.5104 44.8798 89.1455 44.5251C88.7748 44.1703 88.2331 43.9902 87.5317 43.9902H86.6592V48.0722Z" fill="white"/>
<path d="M97.4138 43.3427C97.87 43.6073 98.2292 43.9676 98.4915 44.4406C98.7538 44.9079 98.885 45.4372 98.885 46.0284C98.885 46.6196 98.7538 47.1488 98.4915 47.6161C98.2292 48.0835 97.87 48.4551 97.4138 48.7197C96.9576 48.9843 96.4444 49.1138 95.8798 49.1138C95.3153 49.1138 94.7964 48.9843 94.3402 48.7197C93.884 48.4551 93.519 48.0891 93.2567 47.6161C92.9887 47.1488 92.8633 46.6196 92.8633 46.0284C92.8633 45.4372 92.9944 44.9079 93.2567 44.4406C93.5248 43.9733 93.884 43.6073 94.3402 43.3427C94.7964 43.0837 95.3096 42.9485 95.8798 42.9485C96.4501 42.9485 96.9576 43.078 97.4138 43.3427ZM94.8363 44.1197C94.5284 44.2942 94.2946 44.5476 94.1235 44.8798C93.9524 45.212 93.8726 45.5948 93.8726 46.0284C93.8726 46.4619 93.9581 46.8504 94.1235 47.177C94.2946 47.5092 94.5341 47.7625 94.8363 47.9371C95.1442 48.1172 95.4921 48.2017 95.8798 48.2017C96.2676 48.2017 96.6097 48.1116 96.912 47.9371C97.2142 47.7625 97.448 47.5092 97.6191 47.177C97.7901 46.8504 97.8757 46.4675 97.8757 46.0284C97.8757 45.5892 97.7901 45.2063 97.6191 44.8798C97.448 44.5476 97.2142 44.2998 96.912 44.1197C96.6097 43.9395 96.2676 43.855 95.8798 43.855C95.4921 43.855 95.1385 43.9395 94.8363 44.1197Z" fill="white"/>
<path d="M95.8799 49.2152C95.2925 49.2152 94.7565 49.08 94.2832 48.8041C93.8099 48.5283 93.4336 48.151 93.1598 47.6668C92.8861 47.1826 92.7493 46.6365 92.7493 46.0284C92.7493 45.4203 92.8861 44.8741 93.1598 44.3899C93.4336 43.9057 93.8099 43.5229 94.2832 43.2582C94.7565 42.988 95.2925 42.8528 95.8742 42.8528C96.4558 42.8528 96.9861 42.988 97.4594 43.2582C97.9327 43.5285 98.3091 43.9113 98.5771 44.3899C98.8451 44.8741 98.982 45.4259 98.982 46.0284C98.982 46.6308 98.8451 47.1882 98.5771 47.6668C98.3091 48.151 97.9327 48.5339 97.4594 48.8041C96.9861 49.08 96.4558 49.2152 95.8742 49.2152H95.8799ZM95.8742 43.0499C95.321 43.0499 94.8249 43.1794 94.3801 43.4271C93.9411 43.6749 93.5875 44.0352 93.3309 44.4856C93.0743 44.9361 92.9489 45.4597 92.9489 46.0284C92.9489 46.597 93.08 47.1207 93.3309 47.5711C93.5875 48.0215 93.9411 48.3819 94.3801 48.6352C94.8192 48.8886 95.321 49.0181 95.8742 49.0181C96.4273 49.0181 96.9177 48.8886 97.3568 48.6352C97.7959 48.3819 98.1437 48.0272 98.4003 47.5711C98.6512 47.1207 98.7824 46.597 98.7824 46.0284C98.7824 45.4597 98.6512 44.9361 98.4003 44.4856C98.1494 44.0352 97.7959 43.6749 97.3568 43.4271C96.9177 43.1794 96.4159 43.0499 95.8742 43.0499ZM95.8742 48.303C95.4636 48.303 95.093 48.2073 94.7793 48.0272C94.46 47.8414 94.2091 47.5711 94.0266 47.2276C93.8498 46.8842 93.7586 46.4844 93.7586 46.0284C93.7586 45.5723 93.8498 45.1726 94.0266 44.8291C94.2034 44.4856 94.46 44.2154 94.7793 44.0296C95.0987 43.8438 95.4693 43.7537 95.8742 43.7537C96.279 43.7537 96.644 43.8494 96.9576 44.0296C97.277 44.2098 97.5279 44.48 97.7046 44.8291C97.8814 45.1726 97.9726 45.5723 97.9726 46.0284C97.9726 46.4844 97.8814 46.8842 97.7046 47.2276C97.5279 47.5711 97.277 47.8414 96.9576 48.0272C96.644 48.213 96.279 48.303 95.8742 48.303ZM95.8742 43.9564C95.5035 43.9564 95.1671 44.0408 94.882 44.2041C94.5968 44.3674 94.3688 44.6151 94.2091 44.9248C94.0437 45.2401 93.9639 45.6117 93.9639 46.0284C93.9639 46.445 94.0437 46.8223 94.2091 47.1319C94.3688 47.4416 94.5968 47.6837 94.882 47.8526C95.1671 48.0215 95.5035 48.1004 95.8742 48.1004C96.2448 48.1004 96.5699 48.0159 96.855 47.8526C97.1401 47.6893 97.3625 47.4416 97.5222 47.1319C97.6875 46.8166 97.7674 46.445 97.7674 46.0284C97.7674 45.6117 97.6875 45.2345 97.5222 44.9248C97.3625 44.6151 97.1344 44.373 96.855 44.2041C96.5699 44.0408 96.2391 43.9564 95.8742 43.9564Z" fill="white"/>
<path d="M102.118 48.2918H104.223V49.0519H101.132V43.0274H102.118V48.2918Z" fill="white"/>
<path d="M104.325 49.1476H101.029V42.926H102.215V48.1904H104.325V49.1476ZM101.234 48.9505H104.125V48.3931H102.016V43.1287H101.234V48.9505Z" fill="white"/>
<path d="M107.188 43.0274V46.6027C107.188 47.1376 107.308 47.5373 107.547 47.7963C107.787 48.0609 108.123 48.1904 108.556 48.1904C108.99 48.1904 109.315 48.0609 109.554 47.7963C109.794 47.5317 109.914 47.1376 109.914 46.6027V43.0274H110.9V46.6027C110.9 47.4303 110.683 48.0497 110.25 48.4776C109.817 48.8999 109.246 49.1138 108.539 49.1138C107.832 49.1138 107.273 48.8999 106.846 48.4776C106.418 48.0553 106.207 47.4303 106.207 46.6027V43.0274H107.194H107.188Z" fill="white"/>
<path d="M108.534 49.2095C107.804 49.2095 107.211 48.9843 106.766 48.5451C106.321 48.106 106.099 47.4529 106.099 46.6027V42.9317H107.285V46.6027C107.285 47.1094 107.399 47.4866 107.615 47.7287C107.838 47.9708 108.14 48.0891 108.545 48.0891C108.95 48.0891 109.246 47.9708 109.469 47.7287C109.691 47.4866 109.805 47.1094 109.805 46.6027V42.9317H110.991V46.6027C110.991 47.4529 110.763 48.106 110.313 48.5451C109.862 48.9843 109.263 49.2095 108.528 49.2095H108.534ZM106.293 43.1287V46.6027C106.293 47.3965 106.498 48.0046 106.903 48.4044C107.308 48.8041 107.855 49.0125 108.522 49.0125C109.189 49.0125 109.754 48.8098 110.159 48.4044C110.569 48.0046 110.78 47.3965 110.78 46.6027V43.1287H109.993V46.6027C109.993 47.1601 109.868 47.5824 109.611 47.8639C109.355 48.1454 108.995 48.2862 108.539 48.2862C108.083 48.2862 107.718 48.1454 107.462 47.8639C107.205 47.5824 107.079 47.1601 107.079 46.6027V43.1287H106.298H106.293Z" fill="white"/>
<path d="M121.427 47.6218C121.176 48.0722 120.811 48.4269 120.332 48.6746C119.853 48.9224 119.277 49.0519 118.61 49.0519H116.568V43.0274H118.61C119.277 43.0274 119.853 43.1512 120.332 43.399C120.811 43.6467 121.176 43.9958 121.427 44.4462C121.677 44.8967 121.803 45.4259 121.803 46.034C121.803 46.6421 121.677 47.1713 121.427 47.6274V47.6218ZM120.212 47.6161C120.6 47.2445 120.799 46.7153 120.799 46.0396C120.799 45.364 120.605 44.8347 120.212 44.4631C119.818 44.0859 119.26 43.9001 118.524 43.9001H117.549V48.1792H118.524C119.254 48.1792 119.818 47.9934 120.212 47.6161Z" fill="white"/>
<path d="M118.61 49.1476H116.471V42.926H118.61C119.294 42.926 119.887 43.0555 120.377 43.3089C120.873 43.5679 121.255 43.9282 121.518 44.3956C121.78 44.8572 121.906 45.409 121.906 46.0284C121.906 46.6477 121.774 47.1995 121.518 47.6668C121.261 48.1341 120.873 48.5057 120.383 48.7591C119.887 49.0181 119.294 49.1476 118.61 49.1476ZM116.671 48.9449H118.61C119.254 48.9449 119.824 48.821 120.286 48.5846C120.748 48.3481 121.102 48.0046 121.341 47.5711C121.581 47.1376 121.706 46.6139 121.706 46.0284C121.706 45.4428 121.581 44.9248 121.341 44.4913C121.102 44.0634 120.748 43.7255 120.286 43.4891C119.824 43.2526 119.26 43.1287 118.61 43.1287H116.671V48.9505V48.9449ZM118.53 48.2693H117.452V43.7875H118.53C119.282 43.7875 119.876 43.9902 120.286 44.3787C120.697 44.7728 120.902 45.3246 120.902 46.0284C120.902 46.7322 120.697 47.2839 120.286 47.6781C119.876 48.0722 119.288 48.2693 118.53 48.2693ZM117.652 48.0722H118.53C119.231 48.0722 119.773 47.892 120.144 47.5373C120.514 47.1826 120.702 46.6759 120.702 46.0284C120.702 45.3809 120.514 44.8798 120.144 44.5251C119.773 44.1703 119.231 43.9902 118.53 43.9902H117.652V48.0722Z" fill="white"/>
<path d="M128.406 43.3427C128.862 43.6073 129.222 43.9676 129.484 44.4406C129.746 44.9079 129.877 45.4372 129.877 46.0284C129.877 46.6196 129.746 47.1488 129.484 47.6161C129.222 48.0835 128.862 48.4551 128.406 48.7197C127.95 48.9843 127.437 49.1138 126.872 49.1138C126.308 49.1138 125.789 48.9843 125.333 48.7197C124.876 48.4551 124.511 48.0891 124.249 47.6161C123.987 47.1488 123.856 46.6196 123.856 46.0284C123.856 45.4372 123.987 44.9079 124.249 44.4406C124.517 43.9733 124.876 43.6073 125.333 43.3427C125.789 43.0837 126.302 42.9485 126.872 42.9485C127.443 42.9485 127.95 43.078 128.406 43.3427ZM125.829 44.1197C125.527 44.2942 125.287 44.5476 125.116 44.8798C124.945 45.212 124.859 45.5948 124.859 46.0284C124.859 46.4619 124.945 46.8504 125.116 47.177C125.287 47.5092 125.527 47.7625 125.829 47.9371C126.137 48.1172 126.485 48.2017 126.878 48.2017C127.271 48.2017 127.608 48.1116 127.91 47.9371C128.212 47.7625 128.446 47.5092 128.617 47.177C128.788 46.8504 128.874 46.4675 128.874 46.0284C128.874 45.5892 128.788 45.2063 128.617 44.8798C128.446 44.5476 128.212 44.2998 127.91 44.1197C127.608 43.9395 127.26 43.855 126.878 43.855C126.496 43.855 126.137 43.9395 125.829 44.1197Z" fill="white"/>
<path d="M126.872 49.2152C126.285 49.2152 125.755 49.08 125.282 48.8041C124.808 48.5283 124.432 48.151 124.158 47.6668C123.884 47.1826 123.748 46.6365 123.748 46.0284C123.748 45.4203 123.884 44.8741 124.158 44.3899C124.432 43.9057 124.808 43.5229 125.282 43.2582C125.755 42.9936 126.291 42.8528 126.872 42.8528C127.454 42.8528 127.984 42.988 128.458 43.2582C128.931 43.5285 129.307 43.9113 129.575 44.3899C129.843 44.8741 129.98 45.4259 129.98 46.0284C129.98 46.6308 129.843 47.1882 129.575 47.6668C129.307 48.151 128.931 48.5339 128.458 48.8041C127.984 49.08 127.454 49.2152 126.872 49.2152ZM126.872 43.0499C126.325 43.0499 125.823 43.1794 125.378 43.4271C124.939 43.6749 124.586 44.0352 124.329 44.4856C124.078 44.9361 123.947 45.4597 123.947 46.0284C123.947 46.597 124.078 47.1207 124.329 47.5711C124.586 48.0215 124.939 48.3819 125.378 48.6352C125.818 48.8886 126.319 49.0181 126.867 49.0181C127.414 49.0181 127.91 48.8886 128.349 48.6352C128.788 48.3819 129.142 48.0272 129.393 47.5711C129.644 47.1207 129.775 46.597 129.775 46.0284C129.775 45.4597 129.65 44.9361 129.393 44.4856C129.142 44.0352 128.788 43.6749 128.349 43.4271C127.91 43.1794 127.414 43.0499 126.867 43.0499H126.872ZM126.867 48.303C126.456 48.303 126.091 48.2073 125.772 48.0272C125.453 47.8414 125.202 47.5711 125.019 47.2276C124.842 46.8842 124.751 46.4844 124.751 46.0284C124.751 45.5723 124.842 45.1726 125.019 44.8291C125.202 44.4856 125.453 44.2154 125.772 44.0296C126.091 43.8438 126.456 43.7537 126.867 43.7537C127.277 43.7537 127.637 43.8494 127.95 44.0296C128.27 44.2098 128.515 44.48 128.697 44.8291C128.874 45.1726 128.965 45.5723 128.965 46.0284C128.965 46.4844 128.874 46.8842 128.697 47.2276C128.52 47.5711 128.27 47.8414 127.95 48.0272C127.631 48.213 127.272 48.303 126.867 48.303ZM126.867 43.9564C126.496 43.9564 126.16 44.0408 125.875 44.2041C125.589 44.3674 125.361 44.6151 125.202 44.9248C125.042 45.2401 124.956 45.6117 124.956 46.0284C124.956 46.445 125.042 46.8223 125.202 47.1319C125.361 47.4416 125.589 47.6837 125.875 47.8526C126.165 48.0215 126.496 48.1004 126.867 48.1004C127.237 48.1004 127.562 48.0159 127.848 47.8526C128.133 47.6893 128.355 47.4416 128.515 47.1319C128.68 46.8166 128.76 46.445 128.76 46.0284C128.76 45.6117 128.674 45.2345 128.515 44.9248C128.355 44.6151 128.127 44.373 127.848 44.2041C127.562 44.0408 127.232 43.9564 126.867 43.9564Z" fill="white"/>
<path d="M133.111 48.2918H135.221V49.0519H132.13V43.0274H133.111V48.2918Z" fill="white"/>
<path d="M135.323 49.1476H132.027V42.926H133.213V48.1904H135.323V49.1476ZM132.227 48.9505H135.118V48.3931H133.008V43.1287H132.227V48.9505Z" fill="white"/>
<path d="M138.186 43.0274V46.6027C138.186 47.1376 138.306 47.5373 138.545 47.7963C138.785 48.0609 139.121 48.1904 139.554 48.1904C139.988 48.1904 140.313 48.0609 140.552 47.7963C140.792 47.5317 140.912 47.1376 140.912 46.6027V43.0274H141.898V46.6027C141.898 47.4303 141.681 48.0497 141.248 48.4776C140.815 48.8999 140.244 49.1138 139.537 49.1138C138.83 49.1138 138.271 48.8999 137.844 48.4776C137.416 48.0553 137.205 47.4303 137.205 46.6027V43.0274H138.192H138.186Z" fill="white"/>
<path d="M139.532 49.2095C138.802 49.2095 138.209 48.9843 137.764 48.5451C137.319 48.106 137.097 47.4529 137.097 46.6027V42.9317H138.283V46.6027C138.283 47.1094 138.397 47.4866 138.614 47.7287C138.836 47.9708 139.138 48.0891 139.543 48.0891C139.948 48.0891 140.244 47.9708 140.467 47.7287C140.689 47.4866 140.798 47.1094 140.798 46.6027V42.9317H141.984V46.6027C141.984 47.4529 141.756 48.106 141.305 48.5451C140.855 48.9843 140.256 49.2095 139.526 49.2095H139.532ZM137.296 43.1287V46.6027C137.296 47.3965 137.502 48.0046 137.906 48.4044C138.311 48.8041 138.859 49.0125 139.526 49.0125C140.193 49.0125 140.758 48.8098 141.162 48.4044C141.573 48.0046 141.778 47.3965 141.778 46.6027V43.1287H140.997V46.6027C140.997 47.1601 140.872 47.5824 140.615 47.8639C140.358 48.1454 139.999 48.2862 139.543 48.2862C139.087 48.2862 138.722 48.1454 138.46 47.8639C138.203 47.5824 138.072 47.1601 138.072 46.6027V43.1287H137.291H137.296Z" fill="white"/>
<path d="M152.168 43.0274L150.138 46.856V49.0519H149.146V46.856L147.11 43.0274H148.251L149.648 45.8144L151.045 43.0274H152.168Z" fill="white"/>
<path d="M150.241 49.1476H149.043V46.8842L146.939 42.926H148.308L148.336 42.9823L149.648 45.5892L150.988 42.926H152.339L150.241 46.8786V49.1476ZM149.248 48.9505H150.041L150.052 46.811L152.008 43.1231H151.113L149.653 46.0396L148.193 43.1231H147.281L149.254 46.8504V48.9449L149.248 48.9505Z" fill="white"/>
<path d="M157.796 47.7456H155.225L154.757 49.0519H153.702L155.949 43.1231H157.084L159.319 49.0519H158.264L157.796 47.7456ZM157.517 46.9968L156.508 44.1816L155.498 46.9968H157.517Z" fill="white"/>
<path d="M159.462 49.1476H158.19L157.722 47.8414H155.287L154.82 49.1476H153.548L155.869 43.0217H157.141L159.456 49.1476H159.462ZM158.332 48.9449H159.171L157.009 43.2188H156.017L153.845 48.9449H154.683L155.15 47.6387H157.871L158.332 48.9449ZM157.66 47.0869H155.356L156.508 43.8776L157.66 47.0869ZM155.641 46.8898H157.38L156.513 44.4744L155.647 46.8898H155.641Z" fill="white"/>
<path d="M165.095 48.2693C164.953 48.5226 164.73 48.7253 164.44 48.8773C164.149 49.0294 163.784 49.1082 163.356 49.1082C162.929 49.1082 162.569 49.035 162.244 48.8886C161.913 48.7422 161.651 48.5395 161.457 48.2805C161.263 48.0159 161.149 47.7175 161.121 47.374H162.176C162.204 47.6387 162.318 47.8582 162.518 48.0497C162.718 48.2355 162.986 48.3312 163.316 48.3312C163.619 48.3312 163.847 48.2524 164.012 48.0947C164.177 47.9371 164.257 47.7287 164.257 47.481C164.257 47.2671 164.194 47.0869 164.075 46.9461C163.955 46.8054 163.807 46.6984 163.624 46.6139C163.447 46.5351 163.202 46.445 162.894 46.338C162.512 46.2198 162.204 46.1016 161.965 45.9777C161.725 45.8595 161.526 45.6849 161.355 45.4597C161.189 45.2345 161.104 44.9361 161.104 44.5645C161.104 44.2435 161.184 43.9564 161.343 43.7143C161.503 43.4722 161.737 43.2807 162.033 43.1456C162.33 43.0161 162.678 42.9485 163.071 42.9485C163.693 42.9485 164.189 43.0949 164.554 43.3933C164.919 43.6918 165.124 44.0746 165.181 44.5532H164.12C164.08 44.328 163.972 44.1309 163.795 43.9676C163.619 43.8044 163.379 43.7255 163.077 43.7255C162.803 43.7255 162.581 43.7931 162.41 43.9339C162.244 44.0746 162.159 44.2773 162.159 44.5363C162.159 44.739 162.216 44.9079 162.33 45.0431C162.444 45.1782 162.592 45.2795 162.769 45.3584C162.946 45.4315 163.185 45.5216 163.493 45.6286C163.881 45.7469 164.194 45.8651 164.44 45.989C164.685 46.1128 164.89 46.2874 165.061 46.5238C165.232 46.7603 165.318 47.0644 165.318 47.4472C165.318 47.7456 165.244 48.0159 165.101 48.2693" fill="white"/>
<path d="M163.356 49.2095C162.929 49.2095 162.541 49.1363 162.199 48.9843C161.856 48.8323 161.577 48.6183 161.372 48.3425C161.166 48.0666 161.047 47.7456 161.018 47.3853L161.007 47.2783H162.261L162.273 47.3684C162.301 47.6105 162.398 47.8076 162.581 47.9821C162.763 48.151 162.997 48.2355 163.311 48.2355C163.584 48.2355 163.79 48.1679 163.938 48.0272C164.08 47.8864 164.155 47.7062 164.155 47.481C164.155 47.2896 164.103 47.1376 164.001 47.0137C163.887 46.8842 163.75 46.7885 163.584 46.7096C163.408 46.6308 163.162 46.5407 162.86 46.4394C162.484 46.3212 162.164 46.1973 161.919 46.0734C161.668 45.9495 161.452 45.7637 161.275 45.5216C161.098 45.2795 161.007 44.9586 161.007 44.5701C161.007 44.2267 161.092 43.9226 161.263 43.6636C161.435 43.4046 161.685 43.2019 161.999 43.0612C162.313 42.9204 162.672 42.8528 163.077 42.8528C163.721 42.8528 164.24 43.0105 164.622 43.3202C165.01 43.6298 165.232 44.0465 165.284 44.5476L165.295 44.6602H164.035L164.018 44.5757C163.983 44.3674 163.881 44.1929 163.727 44.0465C163.573 43.9001 163.356 43.8325 163.077 43.8325C162.826 43.8325 162.626 43.8945 162.478 44.0183C162.335 44.1422 162.261 44.3111 162.261 44.542C162.261 44.7278 162.307 44.8685 162.41 44.9868C162.518 45.1106 162.649 45.2063 162.809 45.2739C162.98 45.3471 163.219 45.4372 163.522 45.5385C163.904 45.6568 164.229 45.7806 164.48 45.9045C164.736 46.034 164.959 46.2254 165.135 46.4675C165.318 46.7153 165.409 47.0475 165.409 47.4472C165.409 47.7569 165.335 48.0497 165.181 48.3199C165.027 48.5902 164.793 48.8041 164.485 48.9674C164.177 49.1251 163.801 49.2095 163.356 49.2095ZM161.229 47.481C161.269 47.7569 161.372 48.0046 161.537 48.2242C161.72 48.472 161.971 48.6634 162.284 48.8041C162.598 48.9449 162.957 49.0125 163.362 49.0125C163.767 49.0125 164.115 48.9393 164.394 48.7929C164.673 48.6465 164.873 48.4607 165.01 48.2186C165.147 47.9821 165.215 47.7231 165.215 47.4472C165.215 47.0869 165.135 46.7997 164.981 46.5858C164.822 46.3662 164.622 46.1973 164.394 46.0847C164.155 45.9664 163.841 45.8426 163.465 45.73C163.151 45.623 162.911 45.5385 162.735 45.4541C162.546 45.3696 162.387 45.257 162.261 45.1106C162.13 44.9586 162.067 44.7672 162.067 44.5363C162.067 44.2492 162.164 44.0183 162.353 43.8607C162.541 43.7087 162.786 43.6298 163.082 43.6298C163.413 43.6298 163.681 43.7199 163.875 43.9001C164.041 44.0577 164.155 44.2435 164.212 44.4575H165.078C165.01 44.0521 164.822 43.7312 164.502 43.4722C164.155 43.1963 163.676 43.0499 163.082 43.0499C162.706 43.0499 162.375 43.1175 162.09 43.2413C161.811 43.3652 161.594 43.5454 161.44 43.7706C161.292 43.9958 161.218 44.2661 161.218 44.5701C161.218 44.9136 161.298 45.2007 161.446 45.409C161.6 45.623 161.794 45.7863 162.022 45.8989C162.256 46.0171 162.564 46.1353 162.934 46.2536C163.242 46.3549 163.493 46.4506 163.676 46.5295C163.869 46.6139 164.029 46.7378 164.16 46.8842C164.297 47.0418 164.366 47.2445 164.366 47.481C164.366 47.7569 164.274 47.9877 164.086 48.1679C163.904 48.3425 163.647 48.4325 163.322 48.4325C162.963 48.4325 162.672 48.3312 162.455 48.1229C162.261 47.9427 162.142 47.7231 162.096 47.4754H161.241L161.229 47.481Z" fill="white"/>
<path d="M171.186 47.7456H168.608L168.141 49.0519H167.086L169.332 43.1231H170.461L172.703 49.0519H171.648L171.186 47.7456ZM170.906 46.9968L169.897 44.1816L168.888 46.9968H170.906Z" fill="white"/>
<path d="M172.851 49.1476H171.579L171.111 47.8414H168.676L168.209 49.1476H166.937L169.258 43.0217H170.53L172.839 49.1476H172.851ZM171.722 48.9449H172.56L170.399 43.2188H169.406L167.239 48.9449H168.078L168.545 47.6387H171.265L171.733 48.9449H171.722ZM171.049 47.0869H168.745L169.897 43.8776L171.049 47.0869ZM169.03 46.8898H170.764L169.897 44.4744L169.03 46.8898Z" fill="white"/>
<path d="M162.797 49.0857C162.9 48.9787 163.031 48.928 163.185 48.928C163.339 48.928 163.465 48.9787 163.573 49.0857C163.681 49.1927 163.733 49.3165 163.733 49.4742C163.733 49.6318 163.681 49.7501 163.573 49.857C163.47 49.9584 163.339 50.0091 163.185 50.0091C163.031 50.0091 162.9 49.9584 162.797 49.857C162.689 49.7557 162.638 49.6262 162.638 49.4742C162.638 49.3222 162.689 49.1927 162.797 49.0913" fill="white"/>
<path d="M163.185 50.1048C163.003 50.1048 162.849 50.0428 162.723 49.919C162.598 49.8007 162.535 49.6487 162.535 49.4685C162.535 49.2884 162.598 49.1363 162.723 49.0125C162.849 48.8886 163.003 48.8267 163.185 48.8267C163.368 48.8267 163.522 48.8886 163.641 49.0125C163.767 49.1363 163.83 49.2884 163.83 49.4685C163.83 49.6487 163.767 49.8007 163.641 49.919C163.516 50.0428 163.362 50.1048 163.185 50.1048ZM162.797 49.0857L162.866 49.1532C162.78 49.2377 162.735 49.3447 162.735 49.4685C162.735 49.5924 162.775 49.6937 162.866 49.7782C163.037 49.9471 163.328 49.9471 163.499 49.7782C163.584 49.6937 163.624 49.5924 163.624 49.4685C163.624 49.339 163.584 49.2377 163.493 49.1532C163.408 49.0688 163.299 49.0237 163.18 49.0237C163.06 49.0237 162.951 49.0631 162.86 49.1532L162.792 49.0857H162.797Z" fill="white"/>
</svg>
